<?xml version="1.0" encoding="UTF-8" standalone="no"?>
<svg
   xmlns:dc="http://purl.org/dc/elements/1.1/"
   xmlns:cc="http://creativecommons.org/ns#"
   xmlns:rdf="http://www.w3.org/1999/02/22-rdf-syntax-ns#"
   xmlns:svg="http://www.w3.org/2000/svg"
   xmlns="http://www.w3.org/2000/svg"
   xmlns:sodipodi="http://sodipodi.sourceforge.net/DTD/sodipodi-0.dtd"
   xmlns:inkscape="http://www.inkscape.org/namespaces/inkscape"
   version="1.1"
   viewBox="0 0 528.09972 227.74805"
   stroke-miterlimit="10"
   id="svg4406"
   inkscape:version="0.91 r13725"
   sodipodi:docname="atomic_queue.svg"
   width="528.09973"
   height="227.74805"
   style="fill:none;stroke:none;stroke-linecap:square;stroke-miterlimit:10">
  <metadata
     id="metadata4513">
    <rdf:RDF>
      <cc:Work
         rdf:about="">
        <dc:format>image/svg+xml</dc:format>
        <dc:type
           rdf:resource="http://purl.org/dc/dcmitype/StillImage" />
        <dc:title></dc:title>
      </cc:Work>
    </rdf:RDF>
  </metadata>
  <defs
     id="defs4511" />
  <sodipodi:namedview
     pagecolor="#ffffff"
     bordercolor="#666666"
     borderopacity="1"
     objecttolerance="10"
     gridtolerance="10"
     guidetolerance="10"
     inkscape:pageopacity="0"
     inkscape:pageshadow="2"
     inkscape:window-width="1920"
     inkscape:window-height="1176"
     id="namedview4509"
     showgrid="false"
     fit-margin-top="0"
     fit-margin-left="0"
     fit-margin-right="0"
     fit-margin-bottom="0"
     inkscape:zoom="0.32777778"
     inkscape:cx="1112.9523"
     inkscape:cy="-489.62767"
     inkscape:window-x="0"
     inkscape:window-y="264"
     inkscape:window-maximized="1"
     inkscape:current-layer="svg4406" />
  <path
     style="fill:#000000;fill-opacity:0;fill-rule:nonzero"
     inkscape:connector-curvature="0"
     id="path4413"
     d="m -175.52231,-118.55643 960,0 0,720 -960,0 z" />
  <path
     style="fill:#000000;fill-opacity:0;fill-rule:nonzero"
     inkscape:connector-curvature="0"
     id="path4415"
     d="m 1,28.9685 49.19685,0 0,34.92914 -49.19685,0 z" />
  <path
     style="fill-rule:nonzero;stroke:#9900ff;stroke-width:2;stroke-linecap:butt;stroke-linejoin:round"
     inkscape:connector-curvature="0"
     id="path4417"
     d="m 1,28.9685 49.19685,0 0,34.92914 -49.19685,0 z" />
  <path
     style="fill:#000000;fill-opacity:0;fill-rule:nonzero"
     inkscape:connector-curvature="0"
     id="path4419"
     d="m 50.19685,28.9685 25.6693,0 0,34.92914 -25.6693,0 z" />
  <path
     style="fill-rule:nonzero;stroke:#9900ff;stroke-width:2;stroke-linecap:butt;stroke-linejoin:round"
     inkscape:connector-curvature="0"
     id="path4421"
     d="m 50.19685,28.9685 25.6693,0 0,34.92914 -25.6693,0 z" />
  <path
     style="fill:#000000;fill-opacity:0;fill-rule:nonzero"
     inkscape:connector-curvature="0"
     id="path4423"
     d="m 75.86615,28.9685 25.66928,0 0,34.92914 -25.66928,0 z" />
  <path
     style="fill-rule:nonzero;stroke:#9900ff;stroke-width:2;stroke-linecap:butt;stroke-linejoin:round"
     inkscape:connector-curvature="0"
     id="path4425"
     d="m 75.86615,28.9685 25.66928,0 0,34.92914 -25.66928,0 z" />
  <path
     style="fill:#000000;fill-opacity:0;fill-rule:nonzero"
     inkscape:connector-curvature="0"
     id="path4427"
     d="m 101.53543,28.9685 25.66928,0 0,34.92914 -25.66928,0 z" />
  <path
     style="fill-rule:nonzero;stroke:#9900ff;stroke-width:2;stroke-linecap:butt;stroke-linejoin:round"
     inkscape:connector-curvature="0"
     id="path4429"
     d="m 101.53543,28.9685 25.66928,0 0,34.92914 -25.66928,0 z" />
  <path
     style="fill:#cfe2f3;fill-rule:nonzero"
     inkscape:connector-curvature="0"
     id="path4431"
     d="m 225.56167,113.04724 17.81891,-35.63777 109.05511,0 17.81891,35.63777 -17.81891,35.63779 -109.05511,0 z" />
  <path
     style="fill-rule:nonzero;stroke:#000000;stroke-width:2;stroke-linecap:butt;stroke-linejoin:round"
     inkscape:connector-curvature="0"
     id="path4433"
     d="m 225.56167,113.04724 17.81891,-35.63777 109.05511,0 17.81891,35.63777 -17.81891,35.63779 -109.05511,0 z" />
  <path
     style="fill:#000000;fill-rule:nonzero"
     inkscape:connector-curvature="0"
     id="path4435"
     d="m 253.41842,115.59224 1.6875,-0.14063 q 0.125,1.01563 0.5625,1.67188 0.4375,0.65625 1.35937,1.0625 0.9375,0.40625 2.09375,0.40625 1.03125,0 1.8125,-0.3125 0.79688,-0.3125 1.1875,-0.84375 0.39063,-0.53125 0.39063,-1.15625 0,-0.64063 -0.375,-1.10938 -0.375,-0.48437 -1.23438,-0.8125 -0.54687,-0.21875 -2.42187,-0.65625 -1.875,-0.45312 -2.625,-0.85937 -0.96875,-0.51563 -1.45313,-1.26563 -0.46875,-0.75 -0.46875,-1.6875 0,-1.03125 0.57813,-1.92187 0.59375,-0.90625 1.70312,-1.35938 1.125,-0.46875 2.5,-0.46875 1.51563,0 2.67188,0.48438 1.15625,0.48437 1.76562,1.4375 0.625,0.9375 0.67188,2.14062 l -1.71875,0.125 q -0.14063,-1.28125 -0.95313,-1.9375 -0.79687,-0.67187 -2.35937,-0.67187 -1.625,0 -2.375,0.60937 -0.75,0.59375 -0.75,1.4375 0,0.73438 0.53125,1.20313 0.51562,0.46875 2.70312,0.96875 2.20313,0.5 3.01563,0.875 1.1875,0.54687 1.75,1.39062 0.57812,0.82813 0.57812,1.92188 0,1.09375 -0.625,2.0625 -0.625,0.95312 -1.79687,1.48437 -1.15625,0.53125 -2.60938,0.53125 -1.84375,0 -3.09375,-0.53125 -1.25,-0.54687 -1.96875,-1.625 -0.70312,-1.07812 -0.73437,-2.45312 z m 19.2717,0.76562 1.64062,0.21875 q -0.26562,1.6875 -1.375,2.65625 -1.10937,0.95313 -2.73437,0.95313 -2.01563,0 -3.25,-1.3125 -1.21875,-1.32813 -1.21875,-3.79688 0,-1.59375 0.51562,-2.78125 0.53125,-1.20312 1.60938,-1.79687 1.09375,-0.60938 2.35937,-0.60938 1.60938,0 2.625,0.8125 1.01563,0.8125 1.3125,2.3125 l -1.625,0.25 q -0.23437,-1 -0.82812,-1.5 -0.59375,-0.5 -1.42188,-0.5 -1.26562,0 -2.0625,0.90625 -0.78125,0.90625 -0.78125,2.85938 0,1.98437 0.76563,2.89062 0.76562,0.89063 1.98437,0.89063 0.98438,0 1.64063,-0.59375 0.65625,-0.60938 0.84375,-1.85938 z m 2.89062,3.60938 0,-13.59375 1.67188,0 0,4.875 q 1.17187,-1.35938 2.95312,-1.35938 1.09375,0 1.89063,0.4375 0.8125,0.42188 1.15625,1.1875 0.35937,0.76563 0.35937,2.20313 l 0,6.25 -1.67187,0 0,-6.25 q 0,-1.25 -0.54688,-1.8125 -0.54687,-0.57813 -1.53125,-0.57813 -0.75,0 -1.40625,0.39063 -0.64062,0.375 -0.92187,1.04687 -0.28125,0.65625 -0.28125,1.8125 l 0,5.39063 -1.67188,0 z m 17.12574,-3.17188 1.71875,0.21875 q -0.40625,1.5 -1.51563,2.34375 -1.09375,0.82813 -2.8125,0.82813 -2.15625,0 -3.42187,-1.32813 -1.26563,-1.32812 -1.26563,-3.73437 0,-2.48438 1.26563,-3.85938 1.28125,-1.375 3.32812,-1.375 1.98438,0 3.23438,1.34375 1.25,1.34375 1.25,3.79688 0,0.14062 -0.0156,0.4375 l -7.34375,0 q 0.0937,1.625 0.92188,2.48437 0.82812,0.85938 2.0625,0.85938 0.90625,0 1.54687,-0.46875 0.65625,-0.48438 1.04688,-1.54688 z m -5.48438,-2.70312 5.5,0 q -0.10937,-1.23438 -0.625,-1.85938 -0.79687,-0.96875 -2.07812,-0.96875 -1.14063,0 -1.9375,0.78125 -0.78125,0.76563 -0.85938,2.04688 z m 15.5007,5.875 0,-1.25 q -0.9375,1.46875 -2.75,1.46875 -1.17187,0 -2.17187,-0.64063 -0.98438,-0.65625 -1.53125,-1.8125 -0.53125,-1.17187 -0.53125,-2.6875 0,-1.46875 0.48437,-2.67187 0.5,-1.20313 1.46875,-1.84375 0.98438,-0.64063 2.20313,-0.64063 0.89062,0 1.57812,0.375 0.70313,0.375 1.14063,0.98438 l 0,-4.875 1.65625,0 0,13.59375 -1.54688,0 z m -5.28125,-4.92188 q 0,1.89063 0.79688,2.82813 0.8125,0.9375 1.89062,0.9375 1.09375,0 1.85938,-0.89063 0.76562,-0.89062 0.76562,-2.73437 0,-2.01563 -0.78125,-2.95313 -0.78125,-0.95312 -1.92187,-0.95312 -1.10938,0 -1.85938,0.90625 -0.75,0.90625 -0.75,2.85937 z m 15.71948,4.92188 0,-1.45313 q -1.14062,1.67188 -3.125,1.67188 -0.85937,0 -1.625,-0.32813 -0.75,-0.34375 -1.125,-0.84375 -0.35937,-0.5 -0.51562,-1.23437 -0.0937,-0.5 -0.0937,-1.5625 l 0,-6.10938 1.67187,0 0,5.46875 q 0,1.3125 0.0937,1.76563 0.15625,0.65625 0.67188,1.03125 0.51562,0.375 1.26562,0.375 0.75,0 1.40625,-0.375 0.65625,-0.39063 0.92188,-1.04688 0.28125,-0.67187 0.28125,-1.9375 l 0,-5.28125 1.67187,0 0,9.85938 -1.5,0 z m 3.89133,0 0,-13.59375 1.67188,0 0,13.59375 -1.67188,0 z m 10.92609,-3.17188 1.71875,0.21875 q -0.40625,1.5 -1.51563,2.34375 -1.09375,0.82813 -2.8125,0.82813 -2.15625,0 -3.42187,-1.32813 -1.26563,-1.32812 -1.26563,-3.73437 0,-2.48438 1.26563,-3.85938 1.28125,-1.375 3.32812,-1.375 1.98438,0 3.23438,1.34375 1.25,1.34375 1.25,3.79688 0,0.14062 -0.0156,0.4375 l -7.34375,0 q 0.0937,1.625 0.92188,2.48437 0.82812,0.85938 2.0625,0.85938 0.90625,0 1.54687,-0.46875 0.65625,-0.48438 1.04688,-1.54688 z m -5.48438,-2.70312 5.5,0 q -0.10937,-1.23438 -0.625,-1.85938 -0.79687,-0.96875 -2.07812,-0.96875 -1.14063,0 -1.9375,0.78125 -0.78125,0.76563 -0.85938,2.04688 z m 9.09445,5.875 0,-9.85938 1.5,0 0,1.5 q 0.57813,-1.04687 1.0625,-1.375 0.48438,-0.34375 1.07813,-0.34375 0.84375,0 1.71875,0.54688 l -0.57813,1.54687 q -0.60937,-0.35937 -1.23437,-0.35937 -0.54688,0 -0.98438,0.32812 -0.42187,0.32813 -0.60937,0.90625 -0.28125,0.89063 -0.28125,1.95313 l 0,5.15625 -1.67188,0 z" />
  <path
     style="fill:#cfe2f3;fill-rule:nonzero"
     inkscape:connector-curvature="0"
     id="path4437"
     d="m 470.06039,10.50676 0,0 C 470.06039,5.25632 474.31668,1 479.5671,1 l 38.02588,0 0,0 c 2.52137,0 4.93946,1.0016 6.72229,2.78447 1.78284,1.78286 2.78449,4.20093 2.78449,6.72229 l 0,71.50618 c 0,5.25043 -4.25635,9.50674 -9.50678,9.50674 l -38.02588,0 c -5.25042,0 -9.50671,-4.25631 -9.50671,-9.50674 z" />
  <path
     style="fill-rule:nonzero;stroke:#000000;stroke-width:2;stroke-linecap:butt;stroke-linejoin:round"
     inkscape:connector-curvature="0"
     id="path4439"
     d="m 470.06039,10.50676 0,0 C 470.06039,5.25632 474.31668,1 479.5671,1 l 38.02588,0 0,0 c 2.52137,0 4.93946,1.0016 6.72229,2.78447 1.78284,1.78286 2.78449,4.20093 2.78449,6.72229 l 0,71.50618 c 0,5.25043 -4.25635,9.50674 -9.50678,9.50674 l -38.02588,0 c -5.25042,0 -9.50671,-4.25631 -9.50671,-9.50674 z" />
  <path
     style="fill:#000000;fill-opacity:0;fill-rule:nonzero"
     inkscape:connector-curvature="0"
     id="path4441"
     d="m 485.74539,28.79527 25.66931,0 0,34.92914 -25.66931,0 z" />
  <path
     style="fill-rule:nonzero;stroke:#9900ff;stroke-width:2;stroke-linecap:butt;stroke-linejoin:round"
     inkscape:connector-curvature="0"
     id="path4443"
     d="m 485.74539,28.79527 25.66931,0 0,34.92914 -25.66931,0 z" />
  <path
     style="fill:#000000;fill-opacity:0;fill-rule:nonzero"
     inkscape:connector-curvature="0"
     id="path4445"
     d="m 127.20471,46.43307 67.68506,-0.34645" />
  <path
     style="fill-rule:nonzero;stroke:#9900ff;stroke-width:2;stroke-linecap:butt;stroke-linejoin:round"
     inkscape:connector-curvature="0"
     id="path4447"
     d="m 127.20471,46.43307 67.68506,-0.34645" />
  <path
     style="fill:#000000;fill-opacity:0;fill-rule:nonzero"
     inkscape:connector-curvature="0"
     id="path4449"
     d="m 194.90027,46.7874 32.78738,44.91339" />
  <path
     style="fill-rule:nonzero;stroke:#9900ff;stroke-width:2;stroke-linecap:butt;stroke-linejoin:round"
     inkscape:connector-curvature="0"
     id="path4451"
     d="m 194.90027,46.7874 32.78738,44.91339" />
  <path
     style="fill:#000000;fill-opacity:0;fill-rule:nonzero"
     inkscape:connector-curvature="0"
     id="path4453"
     d="m 226.26509,92.41207 157.54327,0" />
  <path
     style="fill-rule:nonzero;stroke:#9900ff;stroke-width:2;stroke-linecap:butt;stroke-linejoin:round"
     inkscape:connector-curvature="0"
     id="path4455"
     d="m 226.26509,92.41207 157.54327,0" />
  <path
     style="fill:#000000;fill-opacity:0;fill-rule:nonzero"
     inkscape:connector-curvature="0"
     id="path4457"
     d="M 483.59839,46.78346 415.91333,46.43701" />
  <path
     style="fill-rule:nonzero;stroke:#9900ff;stroke-width:2;stroke-linecap:butt;stroke-linejoin:round"
     inkscape:connector-curvature="0"
     id="path4459"
     d="M 483.59839,46.78346 415.91333,46.43701" />
  <path
     style="fill:#000000;fill-opacity:0;fill-rule:nonzero"
     inkscape:connector-curvature="0"
     id="path4461"
     d="M 415.90289,47.1378 383.11554,92.05118" />
  <path
     style="fill-rule:nonzero;stroke:#9900ff;stroke-width:2;stroke-linecap:butt;stroke-linejoin:round"
     inkscape:connector-curvature="0"
     id="path4463"
     d="M 415.90289,47.1378 383.11554,92.05118" />
  <path
     style="fill:#000000;fill-opacity:0;fill-rule:nonzero"
     inkscape:connector-curvature="0"
     id="path4465"
     d="m 1,198.77954 49.19685,0 0,-34.92914 -49.19685,0 z" />
  <path
     style="fill-rule:nonzero;stroke:#ff0000;stroke-width:2;stroke-linecap:butt;stroke-linejoin:round"
     inkscape:connector-curvature="0"
     id="path4467"
     d="m 1,198.77954 49.19685,0 0,-34.92914 -49.19685,0 z" />
  <path
     style="fill:#000000;fill-opacity:0;fill-rule:nonzero"
     inkscape:connector-curvature="0"
     id="path4469"
     d="m 50.19685,198.77954 25.6693,0 0,-34.92914 -25.6693,0 z" />
  <path
     style="fill-rule:nonzero;stroke:#ff0000;stroke-width:2;stroke-linecap:butt;stroke-linejoin:round"
     inkscape:connector-curvature="0"
     id="path4471"
     d="m 50.19685,198.77954 25.6693,0 0,-34.92914 -25.6693,0 z" />
  <path
     style="fill:#000000;fill-opacity:0;fill-rule:nonzero"
     inkscape:connector-curvature="0"
     id="path4473"
     d="m 75.86615,198.77954 25.66928,0 0,-34.92914 -25.66928,0 z" />
  <path
     style="fill-rule:nonzero;stroke:#ff0000;stroke-width:2;stroke-linecap:butt;stroke-linejoin:round"
     inkscape:connector-curvature="0"
     id="path4475"
     d="m 75.86615,198.77954 25.66928,0 0,-34.92914 -25.66928,0 z" />
  <path
     style="fill:#000000;fill-opacity:0;fill-rule:nonzero"
     inkscape:connector-curvature="0"
     id="path4477"
     d="m 101.53543,198.77954 25.66928,0 0,-34.92914 -25.66928,0 z" />
  <path
     style="fill-rule:nonzero;stroke:#ff0000;stroke-width:2;stroke-linecap:butt;stroke-linejoin:round"
     inkscape:connector-curvature="0"
     id="path4479"
     d="m 101.53543,198.77954 25.66928,0 0,-34.92914 -25.66928,0 z" />
  <path
     style="fill:#cfe2f3;fill-rule:nonzero"
     inkscape:connector-curvature="0"
     id="path4481"
     d="m 470.06039,217.24127 0,0 c 0,5.25046 4.25629,9.50678 9.50671,9.50678 l 38.02588,0 0,0 c 2.52137,0 4.93946,-1.00162 6.72229,-2.78449 1.78284,-1.78284 2.78449,-4.20093 2.78449,-6.72229 l 0,-71.50616 c 0,-5.25043 -4.25635,-9.50676 -9.50678,-9.50676 l -38.02588,0 c -5.25042,0 -9.50671,4.25633 -9.50671,9.50676 z" />
  <path
     style="fill-rule:nonzero;stroke:#000000;stroke-width:2;stroke-linecap:butt;stroke-linejoin:round"
     inkscape:connector-curvature="0"
     id="path4483"
     d="m 470.06039,217.24127 0,0 c 0,5.25046 4.25629,9.50678 9.50671,9.50678 l 38.02588,0 0,0 c 2.52137,0 4.93946,-1.00162 6.72229,-2.78449 1.78284,-1.78284 2.78449,-4.20093 2.78449,-6.72229 l 0,-71.50616 c 0,-5.25043 -4.25635,-9.50676 -9.50678,-9.50676 l -38.02588,0 c -5.25042,0 -9.50671,4.25633 -9.50671,9.50676 z" />
  <path
     style="fill:#000000;fill-opacity:0;fill-rule:nonzero"
     inkscape:connector-curvature="0"
     id="path4485"
     d="m 485.74539,198.95277 25.66931,0 0,-34.92914 -25.66931,0 z" />
  <path
     style="fill-rule:nonzero;stroke:#ff0000;stroke-width:2;stroke-linecap:butt;stroke-linejoin:round"
     inkscape:connector-curvature="0"
     id="path4487"
     d="m 485.74539,198.95277 25.66931,0 0,-34.92914 -25.66931,0 z" />
  <path
     style="fill:#000000;fill-opacity:0;fill-rule:nonzero"
     inkscape:connector-curvature="0"
     id="path4489"
     d="m 127.20471,181.31497 67.68506,0.34644" />
  <path
     style="fill-rule:nonzero;stroke:#ff0000;stroke-width:2;stroke-linecap:butt;stroke-linejoin:round"
     inkscape:connector-curvature="0"
     id="path4491"
     d="m 127.20471,181.31497 67.68506,0.34644" />
  <path
     style="fill:#000000;fill-opacity:0;fill-rule:nonzero"
     inkscape:connector-curvature="0"
     id="path4493"
     d="m 194.90027,180.96063 32.78738,-44.91339" />
  <path
     style="fill-rule:nonzero;stroke:#ff0000;stroke-width:2;stroke-linecap:butt;stroke-linejoin:round"
     inkscape:connector-curvature="0"
     id="path4495"
     d="m 194.90027,180.96063 32.78738,-44.91339" />
  <path
     style="fill:#000000;fill-opacity:0;fill-rule:nonzero"
     inkscape:connector-curvature="0"
     id="path4497"
     d="m 226.26509,135.33597 158.2677,-0.8504" />
  <path
     style="fill-rule:nonzero;stroke:#ff0000;stroke-width:2;stroke-linecap:butt;stroke-linejoin:round"
     inkscape:connector-curvature="0"
     id="path4499"
     d="m 226.26509,135.33597 158.2677,-0.8504" />
  <path
     style="fill:#000000;fill-opacity:0;fill-rule:nonzero"
     inkscape:connector-curvature="0"
     id="path4501"
     d="m 483.59839,180.96457 -67.68506,0.34647" />
  <path
     style="fill-rule:nonzero;stroke:#ff0000;stroke-width:2;stroke-linecap:butt;stroke-linejoin:round"
     inkscape:connector-curvature="0"
     id="path4503"
     d="m 483.59839,180.96457 -67.68506,0.34647" />
  <path
     style="fill:#000000;fill-opacity:0;fill-rule:nonzero"
     inkscape:connector-curvature="0"
     id="path4505"
     d="M 415.90289,180.61023 383.11554,135.69685" />
  <path
     style="fill-rule:nonzero;stroke:#ff0000;stroke-width:2;stroke-linecap:butt;stroke-linejoin:round"
     inkscape:connector-curvature="0"
     id="path4507"
     d="M 415.90289,180.61023 383.11554,135.69685" />
  <path
     id="path4409"
     d="m 623.79973,339.07069 959.99997,0 0,720.00001 -959.99997,0 0,-720.00001 z"
     inkscape:connector-curvature="0"
     style="clip-rule:nonzero" />
</svg>
