<?xml version="1.0" encoding="UTF-8" standalone="no"?>
<svg
   xmlns:dc="http://purl.org/dc/elements/1.1/"
   xmlns:cc="http://creativecommons.org/ns#"
   xmlns:rdf="http://www.w3.org/1999/02/22-rdf-syntax-ns#"
   xmlns:svg="http://www.w3.org/2000/svg"
   xmlns="http://www.w3.org/2000/svg"
   xmlns:sodipodi="http://sodipodi.sourceforge.net/DTD/sodipodi-0.dtd"
   xmlns:inkscape="http://www.inkscape.org/namespaces/inkscape"
   version="1.1"
   viewBox="0 0 700.14178 308.66931"
   stroke-miterlimit="10"
   id="svg2"
   inkscape:version="0.91 r13725"
   sodipodi:docname="overview.svg"
   width="700.14178"
   height="308.66931"
   style="fill:none;stroke:none;stroke-linecap:square;stroke-miterlimit:10">
  <metadata
     id="metadata105">
    <rdf:RDF>
      <cc:Work
         rdf:about="">
        <dc:format>image/svg+xml</dc:format>
        <dc:type
           rdf:resource="http://purl.org/dc/dcmitype/StillImage" />
        <dc:title></dc:title>
      </cc:Work>
    </rdf:RDF>
  </metadata>
  <defs
     id="defs103" />
  <sodipodi:namedview
     pagecolor="#ffffff"
     bordercolor="#666666"
     borderopacity="1"
     objecttolerance="10"
     gridtolerance="10"
     guidetolerance="10"
     inkscape:pageopacity="0"
     inkscape:pageshadow="2"
     inkscape:window-width="1782"
     inkscape:window-height="983"
     id="namedview101"
     showgrid="false"
     fit-margin-top="0"
     fit-margin-left="0"
     fit-margin-right="0"
     fit-margin-bottom="0"
     inkscape:zoom="1.0760417"
     inkscape:cx="379.16312"
     inkscape:cy="186.99993"
     inkscape:window-x="2171"
     inkscape:window-y="421"
     inkscape:window-maximized="0"
     inkscape:current-layer="g7"
     showborder="false" />
  <clipPath
     id="p.0">
    <path
       d="M 0,0 960,0 960,540 0,540 0,0 Z"
       id="path5"
       inkscape:connector-curvature="0"
       style="clip-rule:nonzero" />
  </clipPath>
  <g
     clip-path="url(#p.0)"
     id="g7"
     transform="translate(-68.87008,-56.589235)">
    <path
       d="m 437.14172,65.36762 0,0 c 0,-4.572025 3.70636,-8.278385 8.27838,-8.278385 l 135.03381,0 c 2.19556,0 4.30121,0.872185 5.8537,2.424683 1.55249,1.552497 2.42468,3.658138 2.42468,5.853702 l 0,33.112526 c 0,4.572024 -3.70636,8.278384 -8.27838,8.278384 l -135.03381,0 c -4.57202,0 -8.27838,-3.70636 -8.27838,-8.278384 z"
       id="path11"
       inkscape:connector-curvature="0"
       style="fill:#93c47d;fill-rule:nonzero" />
    <path
       d="m 437.14172,65.36762 0,0 c 0,-4.572025 3.70636,-8.278385 8.27838,-8.278385 l 135.03381,0 c 2.19556,0 4.30121,0.872185 5.8537,2.424683 1.55249,1.552497 2.42468,3.658138 2.42468,5.853702 l 0,33.112526 c 0,4.572024 -3.70636,8.278384 -8.27838,8.278384 l -135.03381,0 c -4.57202,0 -8.27838,-3.70636 -8.27838,-8.278384 z"
       id="path13"
       inkscape:connector-curvature="0"
       style="fill-rule:nonzero;stroke:#595959;stroke-width:1;stroke-linecap:butt;stroke-linejoin:round" />
    <path
       d="m 474.45575,82.21888 q 0,-3.390625 1.8125,-5.296875 1.82813,-1.921875 4.70313,-1.921875 1.875,0 3.39062,0.90625 1.51563,0.890625 2.29688,2.5 0.79687,1.609375 0.79687,3.65625 0,2.0625 -0.84375,3.703125 -0.82812,1.625 -2.35937,2.46875 -1.53125,0.84375 -3.29688,0.84375 -1.92187,0 -3.4375,-0.921875 -1.5,-0.9375 -2.28125,-2.53125 -0.78125,-1.609375 -0.78125,-3.40625 z m 1.85938,0.03125 q 0,2.453125 1.3125,3.875 1.32812,1.40625 3.3125,1.40625 2.03125,0 3.34375,-1.421875 1.3125,-1.4375 1.3125,-4.0625 0,-1.65625 -0.5625,-2.890625 -0.54688,-1.234375 -1.64063,-1.921875 -1.07812,-0.6875 -2.42187,-0.6875 -1.90625,0 -3.28125,1.3125 -1.375,1.3125 -1.375,4.390625 z m 13.19894,6.59375 0,-13.59375 4.6875,0 q 1.57812,0 2.42187,0.1875 1.15625,0.265625 1.98438,0.96875 1.07812,0.921875 1.60937,2.34375 0.53125,1.40625 0.53125,3.21875 0,1.546875 -0.35937,2.75 -0.35938,1.1875 -0.92188,1.984375 -0.5625,0.78125 -1.23437,1.234375 -0.67188,0.4375 -1.625,0.671875 -0.95313,0.234375 -2.1875,0.234375 l -4.90625,0 z m 1.79687,-1.609375 2.90625,0 q 1.34375,0 2.10938,-0.25 0.76562,-0.25 1.21875,-0.703125 0.64062,-0.640625 1,-1.71875 0.35937,-1.078125 0.35937,-2.625 0,-2.125 -0.70312,-3.265625 -0.70313,-1.15625 -1.70313,-1.546875 -0.71875,-0.28125 -2.32812,-0.28125 l -2.85938,0 0,10.390625 z m 11.67606,1.609375 0,-13.59375 5.125,0 q 1.35938,0 2.07813,0.125 1,0.171875 1.67187,0.640625 0.67188,0.46875 1.07813,1.3125 0.42187,0.84375 0.42187,1.84375 0,1.734375 -1.10937,2.9375 -1.09375,1.203125 -3.98438,1.203125 l -3.48437,0 0,5.53125 -1.79688,0 z m 1.79688,-7.140625 3.51562,0 q 1.75,0 2.46875,-0.640625 0.73438,-0.65625 0.73438,-1.828125 0,-0.859375 -0.4375,-1.46875 -0.42188,-0.609375 -1.125,-0.796875 -0.45313,-0.125 -1.67188,-0.125 l -3.48437,0 0,4.859375 z m 14.33001,7.140625 5.23438,-13.59375 1.9375,0 5.5625,13.59375 -2.04688,0 -1.59375,-4.125 -5.6875,0 -1.48437,4.125 -1.92188,0 z m 3.92188,-5.578125 4.60937,0 -1.40625,-3.78125 q -0.65625,-1.703125 -0.96875,-2.8125 -0.26562,1.3125 -0.73437,2.59375 l -1.5,4 z m 9.80291,9.359375 0,-13.640625 1.53125,0 0,1.28125 q 0.53125,-0.75 1.20313,-1.125 0.6875,-0.375 1.64062,-0.375 1.26563,0 2.23438,0.65625 0.96875,0.640625 1.45312,1.828125 0.5,1.1875 0.5,2.59375 0,1.515625 -0.54687,2.734375 -0.54688,1.203125 -1.57813,1.84375 -1.03125,0.640625 -2.17187,0.640625 -0.84375,0 -1.51563,-0.34375 -0.65625,-0.359375 -1.07812,-0.890625 l 0,4.796875 -1.67188,0 z m 1.51563,-8.65625 q 0,1.90625 0.76562,2.8125 0.78125,0.90625 1.875,0.90625 1.10938,0 1.89063,-0.9375 0.79687,-0.9375 0.79687,-2.921875 0,-1.875 -0.78125,-2.8125 -0.76562,-0.9375 -1.84375,-0.9375 -1.0625,0 -1.89062,1 -0.8125,1 -0.8125,2.890625 z m 8.86011,8.65625 0,-13.640625 1.53125,0 0,1.28125 q 0.53125,-0.75 1.20312,-1.125 0.6875,-0.375 1.64063,-0.375 1.26562,0 2.23437,0.65625 0.96875,0.640625 1.45313,1.828125 0.5,1.1875 0.5,2.59375 0,1.515625 -0.54688,2.734375 -0.54687,1.203125 -1.57812,1.84375 -1.03125,0.640625 -2.17188,0.640625 -0.84375,0 -1.51562,-0.34375 -0.65625,-0.359375 -1.07813,-0.890625 l 0,4.796875 -1.67187,0 z m 1.51562,-8.65625 q 0,1.90625 0.76563,2.8125 0.78125,0.90625 1.875,0.90625 1.10937,0 1.89062,-0.9375 0.79688,-0.9375 0.79688,-2.921875 0,-1.875 -0.78125,-2.8125 -0.76563,-0.9375 -1.84375,-0.9375 -1.0625,0 -1.89063,1 -0.8125,1 -0.8125,2.890625 z"
       id="path15"
       inkscape:connector-curvature="0"
       style="fill:#000000;fill-rule:nonzero" />
    <path
       d="m 70.56956,65.36762 0,0 c 0,-4.572025 3.706352,-8.278385 8.278374,-8.278385 l 135.033796,0 c 2.19556,0 4.3012,0.872185 5.8537,2.424683 1.55249,1.552497 2.42469,3.658138 2.42469,5.853702 l 0,33.112526 c 0,4.572024 -3.70636,8.278384 -8.27839,8.278384 l -135.033796,0 c -4.572021,0 -8.278374,-3.70636 -8.278374,-8.278384 z"
       id="path17"
       inkscape:connector-curvature="0"
       style="fill:#f4cccc;fill-rule:nonzero" />
    <path
       d="m 70.56956,65.36762 0,0 c 0,-4.572025 3.706352,-8.278385 8.278374,-8.278385 l 135.033796,0 c 2.19556,0 4.3012,0.872185 5.8537,2.424683 1.55249,1.552497 2.42469,3.658138 2.42469,5.853702 l 0,33.112526 c 0,4.572024 -3.70636,8.278384 -8.27839,8.278384 l -135.033796,0 c -4.572021,0 -8.278374,-3.70636 -8.278374,-8.278384 z"
       id="path19"
       inkscape:connector-curvature="0"
       style="fill-rule:nonzero;stroke:#595959;stroke-width:1;stroke-linecap:butt;stroke-linejoin:round" />
    <path
       d="m 96.63915,72.515755 0,-1.609375 5.76563,0 0,5.046875 q -1.32813,1.0625 -2.750005,1.59375 -1.40625,0.53125 -2.890625,0.53125 -2,0 -3.640625,-0.859375 -1.625,-0.859375 -2.46875,-2.484375 -0.828125,-1.625 -0.828125,-3.625 0,-1.984375 0.828125,-3.703125 0.828125,-1.71875 2.390625,-2.546875 1.5625,-0.84375 3.59375,-0.84375 1.46875,0 2.65625,0.484375 1.20313,0.46875 1.875,1.328125 0.67188,0.84375 1.03125,2.21875 l -1.625,0.4375 q -0.3125,-1.03125 -0.765625,-1.625 -0.453125,-0.59375 -1.296875,-0.953125 -0.84375,-0.359375 -1.875,-0.359375 -1.234375,0 -2.140625,0.375 -0.890625,0.375 -1.453125,1 -0.546875,0.609375 -0.84375,1.34375 -0.53125,1.25 -0.53125,2.734375 0,1.8125 0.625,3.046875 0.640625,1.21875 1.828125,1.8125 1.203125,0.59375 2.546875,0.59375 1.171875,0 2.28125,-0.453125 1.10938,-0.453125 1.6875,-0.953125 l 0,-2.53125 -4,0 z m 14.6833,2.15625 1.71875,0.21875 q -0.40625,1.5 -1.51562,2.34375 -1.09375,0.828125 -2.8125,0.828125 -2.15625,0 -3.42188,-1.328125 -1.26562,-1.328125 -1.26562,-3.734375 0,-2.484375 1.26562,-3.859375 1.28125,-1.375 3.32813,-1.375 1.98437,0 3.23437,1.34375 1.25,1.34375 1.25,3.796875 0,0.140625 -0.0156,0.4375 l -7.34375,0 q 0.0937,1.625 0.92187,2.484375 0.82813,0.859375 2.0625,0.859375 0.90625,0 1.54688,-0.46875 0.65625,-0.484375 1.04687,-1.546875 z m -5.48437,-2.703125 5.5,0 q -0.10938,-1.234375 -0.625,-1.859375 -0.79688,-0.96875 -2.07813,-0.96875 -1.14062,0 -1.9375,0.78125 -0.78125,0.765625 -0.85937,2.046875 z m 9.11009,5.875 0,-9.859375 1.5,0 0,1.40625 q 1.09375,-1.625 3.14063,-1.625 0.89062,0 1.64062,0.328125 0.75,0.3125 1.10938,0.84375 0.375,0.515625 0.53125,1.21875 0.0937,0.46875 0.0937,1.625 l 0,6.0625 -1.67188,0 0,-6 q 0,-1.015625 -0.20312,-1.515625 -0.1875,-0.515625 -0.6875,-0.8125 -0.5,-0.296875 -1.17188,-0.296875 -1.0625,0 -1.84375,0.671875 Q 116.62,70.56263 116.62,72.46888 l 0,5.375 -1.67188,0 z m 17.12571,-3.171875 1.71875,0.21875 q -0.40625,1.5 -1.51562,2.34375 -1.09375,0.828125 -2.8125,0.828125 -2.15625,0 -3.42187,-1.328125 -1.26563,-1.328125 -1.26563,-3.734375 0,-2.484375 1.26563,-3.859375 1.28125,-1.375 3.32812,-1.375 1.98437,0 3.23437,1.34375 1.25,1.34375 1.25,3.796875 0,0.140625 -0.0156,0.4375 l -7.34375,0 q 0.0937,1.625 0.92188,2.484375 0.82812,0.859375 2.06249,0.859375 0.90625,0 1.54688,-0.46875 0.65625,-0.484375 1.04687,-1.546875 z m -5.48437,-2.703125 5.5,0 q -0.10938,-1.234375 -0.625,-1.859375 -0.79688,-0.96875 -2.07813,-0.96875 -1.14062,0 -1.93749,0.78125 -0.78125,0.765625 -0.85938,2.046875 z m 9.09446,5.875 0,-9.859375 1.5,0 0,1.5 q 0.57813,-1.046875 1.0625,-1.375 0.48438,-0.34375 1.07813,-0.34375 0.84375,0 1.71875,0.546875 l -0.57813,1.546875 q -0.60937,-0.359375 -1.23437,-0.359375 -0.54688,0 -0.98438,0.328125 -0.42187,0.328125 -0.60937,0.90625 -0.28125,0.890625 -0.28125,1.953125 l 0,5.15625 -1.67188,0 z m 6.24393,-11.6875 0,-1.90625 1.67188,0 0,1.90625 -1.67188,0 z m 0,11.6875 0,-9.859375 1.67188,0 0,9.859375 -1.67188,0 z m 10.5667,-3.609375 1.64062,0.21875 q -0.26562,1.6875 -1.375,2.65625 -1.10937,0.953125 -2.73437,0.953125 -2.01563,0 -3.25,-1.3125 -1.21875,-1.328125 -1.21875,-3.796875 0,-1.59375 0.51562,-2.78125 0.53125,-1.203125 1.60938,-1.796875 1.09375,-0.609375 2.35937,-0.609375 1.60938,0 2.625,0.8125 1.01563,0.8125 1.3125,2.3125 l -1.625,0.25 q -0.23437,-1 -0.82812,-1.5 -0.59375,-0.5 -1.42188,-0.5 -1.26562,0 -2.0625,0.90625 -0.78125,0.90625 -0.78125,2.859375 0,1.984375 0.76563,2.890625 0.76562,0.890625 1.98437,0.890625 0.98438,0 1.64063,-0.59375 0.65625,-0.609375 0.84375,-1.859375 z m 8.21455,3.609375 0,-13.59375 1.79688,0 0,11.984375 6.70312,0 0,1.609375 -8.5,0 z m 10.25072,-11.6875 0,-1.90625 1.67187,0 0,1.90625 -1.67187,0 z m 0,11.6875 0,-9.859375 1.67187,0 0,9.859375 -1.67187,0 z m 4.12919,0 0,-9.859375 1.5,0 0,1.40625 q 1.09375,-1.625 3.14063,-1.625 0.89062,0 1.64062,0.328125 0.75,0.3125 1.10938,0.84375 0.375,0.515625 0.53125,1.21875 0.0937,0.46875 0.0937,1.625 l 0,6.0625 -1.67188,0 0,-6 q 0,-1.015625 -0.20312,-1.515625 -0.1875,-0.515625 -0.6875,-0.8125 -0.5,-0.296875 -1.17188,-0.296875 -1.0625,0 -1.84375,0.671875 -0.76562,0.671875 -0.76562,2.578125 l 0,5.375 -1.67188,0 z m 16.82885,0 0,-1.453125 q -1.14063,1.671875 -3.125,1.671875 -0.85938,0 -1.625,-0.328125 -0.75,-0.34375 -1.125,-0.84375 -0.35938,-0.5 -0.51563,-1.234375 -0.0937,-0.5 -0.0937,-1.5625 l 0,-6.109375 1.67188,0 0,5.46875 q 0,1.3125 0.0937,1.765625 0.15625,0.65625 0.67187,1.03125 0.51563,0.375 1.26563,0.375 0.75,0 1.40625,-0.375 0.65625,-0.390625 0.92187,-1.046875 0.28125,-0.671875 0.28125,-1.9375 l 0,-5.28125 1.67188,0 0,9.859375 -1.5,0 z m 2.81321,0 3.59375,-5.125 -3.32812,-4.734375 2.09375,0 1.51562,2.3125 q 0.42188,0.65625 0.67188,1.109375 0.42187,-0.609375 0.76562,-1.09375 l 1.65625,-2.328125 1.98438,0 -3.39063,4.640625 3.65625,5.21875 -2.04687,0 -2.03125,-3.0625 -0.53125,-0.828125 -2.59375,3.890625 -2.01563,0 z"
       id="path21"
       inkscape:connector-curvature="0"
       style="fill:#000000;fill-rule:nonzero" />
    <path
       d="m 129.73607,99.84388 5.23437,-13.59375 1.9375,0 5.5625,13.59375 -2.04687,0 -1.59375,-4.125 -5.6875,0 -1.48438,4.125 -1.92187,0 z m 3.92187,-5.578125 4.60938,0 -1.40625,-3.78125 q -0.65625,-1.703125 -0.96875,-2.8125 -0.26563,1.3125 -0.73438,2.59375 l -1.5,4 z m 9.80295,9.359375 0,-13.640625 1.53125,0 0,1.28125 q 0.53125,-0.75 1.20313,-1.125 0.6875,-0.375 1.64062,-0.375 1.26563,0 2.23438,0.65625 0.96875,0.640625 1.45312,1.828125 0.5,1.1875 0.5,2.59375 0,1.515625 -0.54687,2.734375 -0.54688,1.203125 -1.57813,1.84375 -1.03125,0.640625 -2.17187,0.640625 -0.84375,0 -1.51563,-0.34375 -0.65625,-0.359375 -1.07812,-0.890625 l 0,4.796875 -1.67188,0 z m 1.51563,-8.65625 q 0,1.90625 0.76562,2.8125 0.78125,0.90625 1.875,0.90625 1.10938,0 1.89063,-0.9375 0.79687,-0.9375 0.79687,-2.921875 0,-1.875 -0.78125,-2.8125 -0.76562,-0.9375 -1.84375,-0.9375 -1.0625,0 -1.89062,1 -0.8125,1 -0.8125,2.890625 z m 8.86009,8.65625 0,-13.640625 1.53125,0 0,1.28125 q 0.53125,-0.75 1.20312,-1.125 0.6875,-0.375 1.64063,-0.375 1.26562,0 2.23437,0.65625 0.96875,0.640625 1.45313,1.828125 0.5,1.1875 0.5,2.59375 0,1.515625 -0.54688,2.734375 -0.54687,1.203125 -1.57812,1.84375 -1.03125,0.640625 -2.17188,0.640625 -0.84375,0 -1.51562,-0.34375 -0.65625,-0.359375 -1.07813,-0.890625 l 0,4.796875 -1.67187,0 z m 1.51562,-8.65625 q 0,1.90625 0.76563,2.8125 0.78125,0.90625 1.875,0.90625 1.10937,0 1.89062,-0.9375 0.79688,-0.9375 0.79688,-2.921875 0,-1.875 -0.78125,-2.8125 -0.76563,-0.9375 -1.84375,-0.9375 -1.0625,0 -1.89063,1 -0.8125,1 -0.8125,2.890625 z"
       id="path23"
       inkscape:connector-curvature="0"
       style="fill:#000000;fill-rule:nonzero" />
    <path
       d="m 70.56956,161.26039 0,0 c 0,-15.13377 12.268349,-27.40213 27.402122,-27.40213 l 273.951658,0 c 7.26749,0 14.23734,2.88701 19.37622,8.02591 5.13889,5.13888 8.02591,12.10872 8.02591,19.37622 l 0,109.60521 c 0,15.13376 -12.26837,27.40213 -27.40213,27.40213 l -273.951659,0 c -15.133774,0 -27.402122,-12.26837 -27.402122,-27.40213 z"
       id="path25"
       inkscape:connector-curvature="0"
       style="fill:#f4cccc;fill-rule:nonzero" />
    <path
       d="m 70.56956,161.26039 0,0 c 0,-15.13377 12.268349,-27.40213 27.402122,-27.40213 l 273.951658,0 c 7.26749,0 14.23734,2.88701 19.37622,8.02591 5.13889,5.13888 8.02591,12.10872 8.02591,19.37622 l 0,109.60521 c 0,15.13376 -12.26837,27.40213 -27.40213,27.40213 l -273.951659,0 c -15.133774,0 -27.402122,-12.26837 -27.402122,-27.40213 z"
       id="path27"
       inkscape:connector-curvature="0"
       style="fill-rule:nonzero;stroke:#595959;stroke-width:1;stroke-linecap:butt;stroke-linejoin:round" />
    <path
       d="m 214.03809,222.98299 0,-13.59375 1.79687,0 0,11.98437 6.70313,0 0,1.60938 -8.5,0 z m 10.25072,-11.6875 0,-1.90625 1.67187,0 0,1.90625 -1.67187,0 z m 0,11.6875 0,-9.85938 1.67187,0 0,9.85938 -1.67187,0 z m 4.12919,0 0,-9.85938 1.5,0 0,1.40625 q 1.09375,-1.625 3.14063,-1.625 0.89062,0 1.64062,0.32813 0.75,0.3125 1.10938,0.84375 0.375,0.51562 0.53125,1.21875 0.0937,0.46875 0.0937,1.625 l 0,6.0625 -1.67188,0 0,-6 q 0,-1.01563 -0.20312,-1.51563 -0.1875,-0.51562 -0.6875,-0.8125 -0.5,-0.29687 -1.17188,-0.29687 -1.0625,0 -1.84375,0.67187 -0.76562,0.67188 -0.76562,2.57813 l 0,5.375 -1.67188,0 z m 16.82885,0 0,-1.45313 q -1.14063,1.67188 -3.125,1.67188 -0.85938,0 -1.625,-0.32813 -0.75,-0.34375 -1.125,-0.84375 -0.35938,-0.5 -0.51563,-1.23437 -0.0937,-0.5 -0.0937,-1.5625 l 0,-6.10938 1.67188,0 0,5.46875 q 0,1.3125 0.0937,1.76563 0.15625,0.65625 0.67187,1.03125 0.51563,0.375 1.26563,0.375 0.75,0 1.40625,-0.375 0.65625,-0.39063 0.92187,-1.04688 0.28125,-0.67187 0.28125,-1.9375 l 0,-5.28125 1.67188,0 0,9.85938 -1.5,0 z m 2.81321,0 3.59375,-5.125 -3.32812,-4.73438 2.09375,0 1.51562,2.3125 q 0.42188,0.65625 0.67188,1.10938 0.42187,-0.60938 0.76562,-1.09375 l 1.65625,-2.32813 1.98438,0 -3.39063,4.64063 3.65625,5.21875 -2.04687,0 -2.03125,-3.0625 -0.53125,-0.82813 -2.59375,3.89063 -2.01563,0 z"
       id="path29"
       inkscape:connector-curvature="0"
       style="fill:#000000;fill-rule:nonzero" />
    <path
       d="m 247.73228,65.36762 0,0 c 0,-4.572025 3.70636,-8.278385 8.27837,-8.278385 l 135.03381,0 c 2.19555,0 4.30117,0.872185 5.85369,2.424683 1.55249,1.552497 2.42469,3.658138 2.42469,5.853702 l 0,33.112526 c 0,4.572024 -3.70636,8.278384 -8.27838,8.278384 l -135.03381,0 c -4.57201,0 -8.27837,-3.70636 -8.27837,-8.278384 z"
       id="path31"
       inkscape:connector-curvature="0"
       style="fill:#f4cccc;fill-rule:nonzero" />
    <path
       d="m 247.73228,65.36762 0,0 c 0,-4.572025 3.70636,-8.278385 8.27837,-8.278385 l 135.03381,0 c 2.19555,0 4.30117,0.872185 5.85369,2.424683 1.55249,1.552497 2.42469,3.658138 2.42469,5.853702 l 0,33.112526 c 0,4.572024 -3.70636,8.278384 -8.27838,8.278384 l -135.03381,0 c -4.57201,0 -8.27837,-3.70636 -8.27837,-8.278384 z"
       id="path33"
       inkscape:connector-curvature="0"
       style="fill-rule:nonzero;stroke:#595959;stroke-width:1;stroke-linecap:butt;stroke-linejoin:round" />
    <path
       d="m 269.95602,77.84388 0,-13.59375 1.79688,0 0,11.984375 6.70312,0 0,1.609375 -8.5,0 z m 10.25073,-11.6875 0,-1.90625 1.67188,0 0,1.90625 -1.67188,0 z m 0,11.6875 0,-9.859375 1.67188,0 0,9.859375 -1.67188,0 z m 4.12918,0 0,-9.859375 1.5,0 0,1.40625 q 1.09375,-1.625 3.14063,-1.625 0.89062,0 1.64062,0.328125 0.75,0.3125 1.10938,0.84375 0.375,0.515625 0.53125,1.21875 0.0937,0.46875 0.0937,1.625 l 0,6.0625 -1.67188,0 0,-6 q 0,-1.015625 -0.20312,-1.515625 -0.1875,-0.515625 -0.6875,-0.8125 -0.5,-0.296875 -1.17188,-0.296875 -1.0625,0 -1.84375,0.671875 -0.76562,0.671875 -0.76562,2.578125 l 0,5.375 -1.67188,0 z m 16.82886,0 0,-1.453125 q -1.14062,1.671875 -3.125,1.671875 -0.85937,0 -1.625,-0.328125 -0.75,-0.34375 -1.125,-0.84375 -0.35937,-0.5 -0.51562,-1.234375 -0.0937,-0.5 -0.0937,-1.5625 l 0,-6.109375 1.67187,0 0,5.46875 q 0,1.3125 0.0937,1.765625 0.15625,0.65625 0.67188,1.03125 0.51562,0.375 1.26562,0.375 0.75,0 1.40625,-0.375 0.65625,-0.390625 0.92188,-1.046875 0.28125,-0.671875 0.28125,-1.9375 l 0,-5.28125 1.67187,0 0,9.859375 -1.5,0 z m 2.8132,0 3.59375,-5.125 -3.32812,-4.734375 2.09375,0 1.51562,2.3125 q 0.42188,0.65625 0.67188,1.109375 0.42187,-0.609375 0.76562,-1.09375 l 1.65625,-2.328125 1.98438,0 -3.39063,4.640625 3.65625,5.21875 -2.04687,0 -2.03125,-3.0625 -0.53125,-0.828125 -2.59375,3.890625 -2.01563,0 z m 25.5427,-4.765625 1.79687,0.453125 q -0.5625,2.21875 -2.03125,3.390625 -1.46875,1.15625 -3.59375,1.15625 -2.20312,0 -3.57812,-0.890625 -1.375,-0.90625 -2.09375,-2.59375 -0.71875,-1.703125 -0.71875,-3.65625 0,-2.125 0.79687,-3.703125 0.8125,-1.578125 2.3125,-2.390625 1.5,-0.828125 3.29688,-0.828125 2.04687,0 3.4375,1.046875 1.39062,1.03125 1.9375,2.90625 l -1.76563,0.421875 q -0.46875,-1.484375 -1.375,-2.15625 -0.90625,-0.6875 -2.26562,-0.6875 -1.5625,0 -2.625,0.75 -1.04688,0.75 -1.48438,2.03125 -0.42187,1.265625 -0.42187,2.609375 0,1.734375 0.5,3.03125 0.51562,1.28125 1.57812,1.921875 1.07813,0.640625 2.3125,0.640625 1.51563,0 2.5625,-0.859375 1.04688,-0.875 1.42188,-2.59375 z m 2.92605,-0.15625 q 0,-2.734375 1.53125,-4.0625 1.26563,-1.09375 3.09375,-1.09375 2.03125,0 3.3125,1.34375 1.29688,1.328125 1.29688,3.671875 0,1.90625 -0.57813,3 -0.5625,1.078125 -1.65625,1.6875 -1.07812,0.59375 -2.375,0.59375 -2.0625,0 -3.34375,-1.328125 -1.28125,-1.328125 -1.28125,-3.8125 z m 1.71875,0 q 0,1.890625 0.82813,2.828125 0.82812,0.9375 2.07812,0.9375 1.25,0 2.0625,-0.9375 0.82813,-0.953125 0.82813,-2.890625 0,-1.828125 -0.82813,-2.765625 -0.82812,-0.9375 -2.0625,-0.9375 -1.25,0 -2.07812,0.9375 -0.82813,0.9375 -0.82813,2.828125 z m 9.28198,4.921875 0,-9.859375 1.5,0 0,1.40625 q 1.09375,-1.625 3.14063,-1.625 0.89062,0 1.64062,0.328125 0.75,0.3125 1.10938,0.84375 0.375,0.515625 0.53125,1.21875 0.0937,0.46875 0.0937,1.625 l 0,6.0625 -1.67188,0 0,-6 q 0,-1.015625 -0.20312,-1.515625 -0.1875,-0.515625 -0.6875,-0.8125 -0.5,-0.296875 -1.17188,-0.296875 -1.0625,0 -1.84375,0.671875 -0.76562,0.671875 -0.76562,2.578125 l 0,5.375 -1.67188,0 z m 14.03196,-1.5 0.23437,1.484375 q -0.70312,0.140625 -1.26562,0.140625 -0.90625,0 -1.40625,-0.28125 -0.5,-0.296875 -0.70313,-0.75 -0.20312,-0.46875 -0.20312,-1.984375 l 0,-5.65625 -1.23438,0 0,-1.3125 1.23438,0 0,-2.4375 1.65625,-1 0,3.4375 1.6875,0 0,1.3125 -1.6875,0 0,5.75 q 0,0.71875 0.0781,0.921875 0.0937,0.203125 0.29688,0.328125 0.20312,0.125 0.57812,0.125 0.26563,0 0.73438,-0.07813 z m 1.51144,1.5 0,-9.859375 1.5,0 0,1.5 q 0.57813,-1.046875 1.0625,-1.375 0.48438,-0.34375 1.07813,-0.34375 0.84375,0 1.71875,0.546875 l -0.57813,1.546875 q -0.60937,-0.359375 -1.23437,-0.359375 -0.54688,0 -0.98438,0.328125 -0.42187,0.328125 -0.60937,0.90625 -0.28125,0.890625 -0.28125,1.953125 l 0,5.15625 -1.67188,0 z m 5.6033,-4.921875 q 0,-2.734375 1.53125,-4.0625 1.26563,-1.09375 3.09375,-1.09375 2.03125,0 3.3125,1.34375 1.29688,1.328125 1.29688,3.671875 0,1.90625 -0.57813,3 -0.5625,1.078125 -1.65625,1.6875 -1.07812,0.59375 -2.375,0.59375 -2.0625,0 -3.34375,-1.328125 -1.28125,-1.328125 -1.28125,-3.8125 z m 1.71875,0 q 0,1.890625 0.82813,2.828125 0.82812,0.9375 2.07812,0.9375 1.25,0 2.0625,-0.9375 0.82813,-0.953125 0.82813,-2.890625 0,-1.828125 -0.82813,-2.765625 -0.82812,-0.9375 -2.0625,-0.9375 -1.25,0 -2.07812,0.9375 -0.82813,0.9375 -0.82813,2.828125 z m 9.2507,4.921875 0,-13.59375 1.67188,0 0,13.59375 -1.67188,0 z"
       id="path35"
       inkscape:connector-curvature="0"
       style="fill:#000000;fill-rule:nonzero" />
    <path
       d="m 306.8988,99.84388 5.23437,-13.59375 1.9375,0 5.5625,13.59375 -2.04687,0 -1.59375,-4.125 -5.6875,0 -1.48438,4.125 -1.92187,0 z m 3.92187,-5.578125 4.60938,0 -1.40625,-3.78125 q -0.65625,-1.703125 -0.96875,-2.8125 -0.26563,1.3125 -0.73438,2.59375 l -1.5,4 z m 9.80295,9.359375 0,-13.640625 1.53125,0 0,1.28125 q 0.53125,-0.75 1.20313,-1.125 0.6875,-0.375 1.64062,-0.375 1.26563,0 2.23438,0.65625 0.96875,0.640625 1.45312,1.828125 0.5,1.1875 0.5,2.59375 0,1.515625 -0.54687,2.734375 -0.54688,1.203125 -1.57813,1.84375 -1.03125,0.640625 -2.17187,0.640625 -0.84375,0 -1.51563,-0.34375 -0.65625,-0.359375 -1.07812,-0.890625 l 0,4.796875 -1.67188,0 z m 1.51563,-8.65625 q 0,1.90625 0.76562,2.8125 0.78125,0.90625 1.875,0.90625 1.10938,0 1.89063,-0.9375 0.79687,-0.9375 0.79687,-2.921875 0,-1.875 -0.78125,-2.8125 -0.76562,-0.9375 -1.84375,-0.9375 -1.0625,0 -1.89062,1 -0.8125,1 -0.8125,2.890625 z m 8.86011,8.65625 0,-13.640625 1.53125,0 0,1.28125 q 0.53125,-0.75 1.20312,-1.125 0.6875,-0.375 1.64063,-0.375 1.26562,0 2.23437,0.65625 0.96875,0.640625 1.45313,1.828125 0.5,1.1875 0.5,2.59375 0,1.515625 -0.54688,2.734375 -0.54687,1.203125 -1.57812,1.84375 -1.03125,0.640625 -2.17188,0.640625 -0.84375,0 -1.51562,-0.34375 -0.65625,-0.359375 -1.07813,-0.890625 l 0,4.796875 -1.67187,0 z m 1.51562,-8.65625 q 0,1.90625 0.76563,2.8125 0.78125,0.90625 1.875,0.90625 1.10937,0 1.89062,-0.9375 0.79688,-0.9375 0.79688,-2.921875 0,-1.875 -0.78125,-2.8125 -0.76563,-0.9375 -1.84375,-0.9375 -1.0625,0 -1.89063,1 -0.8125,1 -0.8125,2.890625 z"
       id="path37"
       inkscape:connector-curvature="0"
       style="fill:#000000;fill-rule:nonzero" />
    <path
       d="m 616.92126,65.36762 0,0 c 0,-4.572025 3.70636,-8.278385 8.27838,-8.278385 l 135.03381,0 c 2.19556,0 4.30115,0.872185 5.8537,2.424683 1.55249,1.552497 2.42468,3.658138 2.42468,5.853702 l 0,33.112526 c 0,4.572024 -3.70636,8.278384 -8.27838,8.278384 l -135.03381,0 c -4.57202,0 -8.27838,-3.70636 -8.27838,-8.278384 z"
       id="path39"
       inkscape:connector-curvature="0"
       style="fill:#93c47d;fill-rule:nonzero" />
    <path
       d="m 616.92126,65.36762 0,0 c 0,-4.572025 3.70636,-8.278385 8.27838,-8.278385 l 135.03381,0 c 2.19556,0 4.30115,0.872185 5.8537,2.424683 1.55249,1.552497 2.42468,3.658138 2.42468,5.853702 l 0,33.112526 c 0,4.572024 -3.70636,8.278384 -8.27838,8.278384 l -135.03381,0 c -4.57202,0 -8.27838,-3.70636 -8.27838,-8.278384 z"
       id="path41"
       inkscape:connector-curvature="0"
       style="fill-rule:nonzero;stroke:#595959;stroke-width:1;stroke-linecap:butt;stroke-linejoin:round" />
    <path
       d="m 654.2353,82.21888 q 0,-3.390625 1.8125,-5.296875 1.82813,-1.921875 4.70313,-1.921875 1.875,0 3.39062,0.90625 1.51563,0.890625 2.29688,2.5 0.79687,1.609375 0.79687,3.65625 0,2.0625 -0.84375,3.703125 -0.82812,1.625 -2.35937,2.46875 -1.53125,0.84375 -3.29688,0.84375 -1.92187,0 -3.4375,-0.921875 -1.5,-0.9375 -2.28125,-2.53125 -0.78125,-1.609375 -0.78125,-3.40625 z m 1.85938,0.03125 q 0,2.453125 1.3125,3.875 1.32812,1.40625 3.3125,1.40625 2.03125,0 3.34375,-1.421875 1.3125,-1.4375 1.3125,-4.0625 0,-1.65625 -0.5625,-2.890625 -0.54688,-1.234375 -1.64063,-1.921875 -1.07812,-0.6875 -2.42187,-0.6875 -1.90625,0 -3.28125,1.3125 -1.375,1.3125 -1.375,4.390625 z m 13.19891,6.59375 0,-13.59375 4.6875,0 q 1.57812,0 2.42187,0.1875 1.15625,0.265625 1.98438,0.96875 1.07812,0.921875 1.60937,2.34375 0.53125,1.40625 0.53125,3.21875 0,1.546875 -0.35937,2.75 -0.35938,1.1875 -0.92188,1.984375 -0.5625,0.78125 -1.23437,1.234375 -0.67188,0.4375 -1.625,0.671875 -0.95313,0.234375 -2.1875,0.234375 l -4.90625,0 z m 1.79687,-1.609375 2.90625,0 q 1.34375,0 2.10938,-0.25 0.76562,-0.25 1.21875,-0.703125 0.64062,-0.640625 1,-1.71875 0.35937,-1.078125 0.35937,-2.625 0,-2.125 -0.70312,-3.265625 -0.70313,-1.15625 -1.70313,-1.546875 -0.71875,-0.28125 -2.32812,-0.28125 l -2.85938,0 0,10.390625 z m 11.67609,1.609375 0,-13.59375 5.125,0 q 1.35938,0 2.07813,0.125 1,0.171875 1.67187,0.640625 0.67188,0.46875 1.07813,1.3125 0.42187,0.84375 0.42187,1.84375 0,1.734375 -1.10937,2.9375 -1.09375,1.203125 -3.98438,1.203125 l -3.48437,0 0,5.53125 -1.79688,0 z m 1.79688,-7.140625 3.51562,0 q 1.75,0 2.46875,-0.640625 0.73438,-0.65625 0.73438,-1.828125 0,-0.859375 -0.4375,-1.46875 -0.42188,-0.609375 -1.125,-0.796875 -0.45313,-0.125 -1.67188,-0.125 l -3.48437,0 0,4.859375 z m 14.33001,7.140625 5.23438,-13.59375 1.9375,0 5.5625,13.59375 -2.04688,0 -1.59375,-4.125 -5.6875,0 -1.48437,4.125 -1.92188,0 z m 3.92188,-5.578125 4.60937,0 -1.40625,-3.78125 q -0.65625,-1.703125 -0.96875,-2.8125 -0.26562,1.3125 -0.73437,2.59375 l -1.5,4 z m 9.80291,9.359375 0,-13.640625 1.53125,0 0,1.28125 q 0.53125,-0.75 1.20313,-1.125 0.6875,-0.375 1.64062,-0.375 1.26563,0 2.23438,0.65625 0.96875,0.640625 1.45312,1.828125 0.5,1.1875 0.5,2.59375 0,1.515625 -0.54687,2.734375 -0.54688,1.203125 -1.57813,1.84375 -1.03125,0.640625 -2.17187,0.640625 -0.84375,0 -1.51563,-0.34375 -0.65625,-0.359375 -1.07812,-0.890625 l 0,4.796875 -1.67188,0 z m 1.51563,-8.65625 q 0,1.90625 0.76562,2.8125 0.78125,0.90625 1.875,0.90625 1.10938,0 1.89063,-0.9375 0.79687,-0.9375 0.79687,-2.921875 0,-1.875 -0.78125,-2.8125 -0.76562,-0.9375 -1.84375,-0.9375 -1.0625,0 -1.89062,1 -0.8125,1 -0.8125,2.890625 z m 8.86011,8.65625 0,-13.640625 1.53125,0 0,1.28125 q 0.53125,-0.75 1.20312,-1.125 0.6875,-0.375 1.64063,-0.375 1.26562,0 2.23437,0.65625 0.96875,0.640625 1.45313,1.828125 0.5,1.1875 0.5,2.59375 0,1.515625 -0.54688,2.734375 -0.54687,1.203125 -1.57812,1.84375 -1.03125,0.640625 -2.17188,0.640625 -0.84375,0 -1.51562,-0.34375 -0.65625,-0.359375 -1.07813,-0.890625 l 0,4.796875 -1.67187,0 z m 1.51562,-8.65625 q 0,1.90625 0.76563,2.8125 0.78125,0.90625 1.875,0.90625 1.10937,0 1.89062,-0.9375 0.79688,-0.9375 0.79688,-2.921875 0,-1.875 -0.78125,-2.8125 -0.76563,-0.9375 -1.84375,-0.9375 -1.0625,0 -1.89063,1 -0.8125,1 -0.8125,2.890625 z"
       id="path43"
       inkscape:connector-curvature="0"
       style="fill:#000000;fill-rule:nonzero" />
    <path
       d="m 437.14172,141.10783 0,0 c 0,-6.14629 4.98254,-11.12883 11.12885,-11.12883 l 212.45099,0 c 2.95153,0 5.78222,1.1725 7.86926,3.25955 2.08709,2.08707 3.25958,4.91773 3.25958,7.86928 l 0,44.51399 c 0,6.14629 -4.98254,11.12883 -11.12884,11.12883 l -212.45099,0 c -6.14631,0 -11.12885,-4.98254 -11.12885,-11.12883 z"
       id="path45"
       inkscape:connector-curvature="0"
       style="fill:#93c47d;fill-rule:nonzero" />
    <path
       d="m 437.14172,141.10783 0,0 c 0,-6.14629 4.98254,-11.12883 11.12885,-11.12883 l 212.45099,0 c 2.95153,0 5.78222,1.1725 7.86926,3.25955 2.08709,2.08707 3.25958,4.91773 3.25958,7.86928 l 0,44.51399 c 0,6.14629 -4.98254,11.12883 -11.12884,11.12883 l -212.45099,0 c -6.14631,0 -11.12885,-4.98254 -11.12885,-11.12883 z"
       id="path47"
       inkscape:connector-curvature="0"
       style="fill-rule:nonzero;stroke:#595959;stroke-width:1;stroke-linecap:butt;stroke-linejoin:round" />
    <path
       d="m 468.83673,163.65984 q 0,-3.39063 1.8125,-5.29688 1.82812,-1.92187 4.70312,-1.92187 1.875,0 3.39063,0.90625 1.51562,0.89062 2.29687,2.5 0.79688,1.60937 0.79688,3.65625 0,2.0625 -0.84375,3.70312 -0.82813,1.625 -2.35938,2.46875 -1.53125,0.84375 -3.29687,0.84375 -1.92188,0 -3.4375,-0.92187 -1.5,-0.9375 -2.28125,-2.53125 -0.78125,-1.60938 -0.78125,-3.40625 z m 1.85937,0.0312 q 0,2.45312 1.3125,3.875 1.32813,1.40625 3.3125,1.40625 2.03125,0 3.34375,-1.42188 1.3125,-1.4375 1.3125,-4.0625 0,-1.65625 -0.5625,-2.89062 -0.54687,-1.23438 -1.64062,-1.92188 -1.07813,-0.6875 -2.42188,-0.6875 -1.90625,0 -3.28125,1.3125 -1.375,1.3125 -1.375,4.39063 z m 13.19892,6.59375 0,-13.59375 4.6875,0 q 1.57812,0 2.42187,0.1875 1.15625,0.26562 1.98438,0.96875 1.07812,0.92187 1.60937,2.34375 0.53125,1.40625 0.53125,3.21875 0,1.54687 -0.35937,2.75 -0.35938,1.1875 -0.92188,1.98437 -0.5625,0.78125 -1.23437,1.23438 -0.67188,0.4375 -1.625,0.67187 -0.95313,0.23438 -2.1875,0.23438 l -4.90625,0 z m 1.79687,-1.60938 2.90625,0 q 1.34375,0 2.10938,-0.25 0.76562,-0.25 1.21875,-0.70312 0.64062,-0.64063 1,-1.71875 0.35937,-1.07813 0.35937,-2.625 0,-2.125 -0.70312,-3.26563 -0.70313,-1.15625 -1.70313,-1.54687 -0.71875,-0.28125 -2.32812,-0.28125 l -2.85938,0 0,10.39062 z m 11.67609,1.60938 0,-13.59375 5.125,0 q 1.35937,0 2.07812,0.125 1,0.17187 1.67188,0.64062 0.67187,0.46875 1.07812,1.3125 0.42188,0.84375 0.42188,1.84375 0,1.73438 -1.10938,2.9375 -1.09375,1.20313 -3.98437,1.20313 l -3.48438,0 0,5.53125 -1.79687,0 z m 1.79687,-7.14063 3.51563,0 q 1.75,0 2.46875,-0.64062 0.73437,-0.65625 0.73437,-1.82813 0,-0.85937 -0.4375,-1.46875 -0.42187,-0.60937 -1.125,-0.79687 -0.45312,-0.125 -1.67187,-0.125 l -3.48438,0 0,4.85937 z m 16.1269,7.14063 0,-13.59375 1.8125,0 0,13.59375 -1.8125,0 z m 4.66766,0 0,-9.85938 1.5,0 0,1.39063 q 0.45313,-0.71875 1.21875,-1.15625 0.78125,-0.45313 1.76563,-0.45313 1.09375,0 1.79687,0.45313 0.70313,0.45312 0.98438,1.28125 1.17187,-1.73438 3.04687,-1.73438 1.46875,0 2.25,0.8125 0.79688,0.8125 0.79688,2.5 l 0,6.76563 -1.67188,0 0,-6.20313 q 0,-1 -0.15625,-1.4375 -0.15625,-0.45312 -0.59375,-0.71875 -0.42187,-0.26562 -1,-0.26562 -1.03125,0 -1.71875,0.6875 -0.6875,0.6875 -0.6875,2.21875 l 0,5.71875 -1.67187,0 0,-6.40625 q 0,-1.10938 -0.40625,-1.65625 -0.40625,-0.5625 -1.34375,-0.5625 -0.70313,0 -1.3125,0.375 -0.59375,0.35937 -0.85938,1.07812 -0.26562,0.71875 -0.26562,2.0625 l 0,5.10938 -1.67188,0 z m 15.54077,3.78125 0,-13.64063 1.53125,0 0,1.28125 q 0.53125,-0.75 1.20313,-1.125 0.6875,-0.375 1.64062,-0.375 1.26563,0 2.23438,0.65625 0.96875,0.64063 1.45312,1.82813 0.5,1.1875 0.5,2.59375 0,1.51562 -0.54687,2.73437 -0.54688,1.20313 -1.57813,1.84375 -1.03125,0.64063 -2.17187,0.64063 -0.84375,0 -1.51563,-0.34375 -0.65625,-0.35938 -1.07812,-0.89063 l 0,4.79688 -1.67188,0 z m 1.51563,-8.65625 q 0,1.90625 0.76562,2.8125 0.78125,0.90625 1.875,0.90625 1.10938,0 1.89063,-0.9375 0.79687,-0.9375 0.79687,-2.92188 0,-1.875 -0.78125,-2.8125 -0.76562,-0.9375 -1.84375,-0.9375 -1.0625,0 -1.89062,1 -0.8125,1 -0.8125,2.89063 z m 8.82885,4.875 0,-13.59375 1.67188,0 0,13.59375 -1.67188,0 z m 10.92609,-3.17188 1.71875,0.21875 q -0.40625,1.5 -1.51562,2.34375 -1.09375,0.82813 -2.8125,0.82813 -2.15625,0 -3.42188,-1.32813 -1.26562,-1.32812 -1.26562,-3.73437 0,-2.48438 1.26562,-3.85938 1.28125,-1.375 3.32813,-1.375 1.98437,0 3.23437,1.34375 1.25,1.34375 1.25,3.79688 0,0.14062 -0.0156,0.4375 l -7.34375,0 q 0.0937,1.625 0.92187,2.48437 0.82813,0.85938 2.0625,0.85938 0.90625,0 1.54688,-0.46875 0.65625,-0.48438 1.04687,-1.54688 z m -5.48437,-2.70312 5.5,0 q -0.10938,-1.23438 -0.625,-1.85938 -0.79688,-0.96875 -2.07813,-0.96875 -1.14062,0 -1.9375,0.78125 -0.78125,0.76563 -0.85937,2.04688 z m 9.1101,5.875 0,-9.85938 1.5,0 0,1.39063 q 0.45313,-0.71875 1.21875,-1.15625 0.78125,-0.45313 1.76563,-0.45313 1.09375,0 1.79687,0.45313 0.70313,0.45312 0.98438,1.28125 1.17187,-1.73438 3.04687,-1.73438 1.46875,0 2.25,0.8125 0.79688,0.8125 0.79688,2.5 l 0,6.76563 -1.67188,0 0,-6.20313 q 0,-1 -0.15625,-1.4375 -0.15625,-0.45312 -0.59375,-0.71875 -0.42187,-0.26562 -1,-0.26562 -1.03125,0 -1.71875,0.6875 -0.6875,0.6875 -0.6875,2.21875 l 0,5.71875 -1.67187,0 0,-6.40625 q 0,-1.10938 -0.40625,-1.65625 -0.40625,-0.5625 -1.34375,-0.5625 -0.70313,0 -1.3125,0.375 -0.59375,0.35937 -0.85938,1.07812 -0.26562,0.71875 -0.26562,2.0625 l 0,5.10938 -1.67188,0 z m 22.29077,-3.17188 1.71875,0.21875 q -0.40625,1.5 -1.51562,2.34375 -1.09375,0.82813 -2.8125,0.82813 -2.15625,0 -3.42188,-1.32813 -1.26562,-1.32812 -1.26562,-3.73437 0,-2.48438 1.26562,-3.85938 1.28125,-1.375 3.32813,-1.375 1.98437,0 3.23437,1.34375 1.25,1.34375 1.25,3.79688 0,0.14062 -0.0156,0.4375 l -7.34375,0 q 0.0937,1.625 0.92187,2.48437 0.82813,0.85938 2.0625,0.85938 0.90625,0 1.54688,-0.46875 0.65625,-0.48438 1.04687,-1.54688 z m -5.48437,-2.70312 5.5,0 q -0.10938,-1.23438 -0.625,-1.85938 -0.79688,-0.96875 -2.07813,-0.96875 -1.14062,0 -1.9375,0.78125 -0.78125,0.76563 -0.85937,2.04688 z m 9.11011,5.875 0,-9.85938 1.5,0 0,1.40625 q 1.09375,-1.625 3.14062,-1.625 0.89063,0 1.64063,0.32813 0.75,0.3125 1.10937,0.84375 0.375,0.51562 0.53125,1.21875 0.0937,0.46875 0.0937,1.625 l 0,6.0625 -1.67187,0 0,-6 q 0,-1.01563 -0.20313,-1.51563 -0.1875,-0.51562 -0.6875,-0.8125 -0.5,-0.29687 -1.17187,-0.29687 -1.0625,0 -1.84375,0.67187 -0.76563,0.67188 -0.76563,2.57813 l 0,5.375 -1.67187,0 z m 14.03198,-1.5 0.23437,1.48437 q -0.70312,0.14063 -1.26562,0.14063 -0.90625,0 -1.40625,-0.28125 -0.5,-0.29688 -0.70313,-0.75 -0.20312,-0.46875 -0.20312,-1.98438 l 0,-5.65625 -1.23438,0 0,-1.3125 1.23438,0 0,-2.4375 1.65625,-1 0,3.4375 1.6875,0 0,1.3125 -1.6875,0 0,5.75 q 0,0.71875 0.0781,0.92188 0.0937,0.20312 0.29688,0.32812 0.20312,0.125 0.57812,0.125 0.26563,0 0.73438,-0.0781 z m 7.96454,0.28125 q -0.9375,0.79687 -1.79688,1.125 -0.85937,0.3125 -1.84375,0.3125 -1.60937,0 -2.48437,-0.78125 -0.875,-0.79688 -0.875,-2.03125 0,-0.73438 0.32812,-1.32813 0.32813,-0.59375 0.85938,-0.95312 0.53125,-0.35938 1.20312,-0.54688 0.5,-0.14062 1.48438,-0.25 2.03125,-0.25 2.98437,-0.57812 0,-0.34375 0,-0.4375 0,-1.01563 -0.46875,-1.4375 -0.64062,-0.5625 -1.90625,-0.5625 -1.17187,0 -1.73437,0.40625 -0.5625,0.40625 -0.82813,1.46875 l -1.64062,-0.23438 q 0.23437,-1.04687 0.73437,-1.6875 0.51563,-0.64062 1.46875,-0.98437 0.96875,-0.35938 2.25,-0.35938 1.26563,0 2.04688,0.29688 0.78125,0.29687 1.15625,0.75 0.375,0.45312 0.51562,1.14062 0.0937,0.42188 0.0937,1.53125 l 0,2.23438 q 0,2.32812 0.0937,2.95312 0.10938,0.60938 0.4375,1.17188 l -1.75,0 q -0.26562,-0.51563 -0.32812,-1.21875 z m -0.14063,-3.71875 q -0.90625,0.35937 -2.73437,0.625 -1.03125,0.14062 -1.45313,0.32812 -0.42187,0.1875 -0.65625,0.54688 -0.23437,0.35937 -0.23437,0.79687 0,0.67188 0.5,1.125 0.51562,0.4375 1.48437,0.4375 0.96875,0 1.71875,-0.42187 0.75,-0.4375 1.10938,-1.15625 0.26562,-0.57813 0.26562,-1.67188 l 0,-0.60937 z m 7.73511,3.4375 0.23437,1.48437 q -0.70312,0.14063 -1.26562,0.14063 -0.90625,0 -1.40625,-0.28125 -0.5,-0.29688 -0.70313,-0.75 -0.20312,-0.46875 -0.20312,-1.98438 l 0,-5.65625 -1.23438,0 0,-1.3125 1.23438,0 0,-2.4375 1.65625,-1 0,3.4375 1.6875,0 0,1.3125 -1.6875,0 0,5.75 q 0,0.71875 0.0781,0.92188 0.0937,0.20312 0.29688,0.32812 0.20312,0.125 0.57812,0.125 0.26563,0 0.73438,-0.0781 z m 1.54266,-10.1875 0,-1.90625 1.67188,0 0,1.90625 -1.67188,0 z m 0,11.6875 0,-9.85938 1.67188,0 0,9.85938 -1.67188,0 z m 3.50421,-4.92188 q 0,-2.73437 1.53125,-4.0625 1.26563,-1.09375 3.09375,-1.09375 2.03125,0 3.3125,1.34375 1.29688,1.32813 1.29688,3.67188 0,1.90625 -0.57813,3 -0.5625,1.07812 -1.65625,1.6875 -1.07812,0.59375 -2.375,0.59375 -2.0625,0 -3.34375,-1.32813 -1.28125,-1.32812 -1.28125,-3.8125 z m 1.71875,0 q 0,1.89063 0.82813,2.82813 0.82812,0.9375 2.07812,0.9375 1.25,0 2.0625,-0.9375 0.82813,-0.95313 0.82813,-2.89063 0,-1.82812 -0.82813,-2.76562 -0.82812,-0.9375 -2.0625,-0.9375 -1.25,0 -2.07812,0.9375 -0.82813,0.9375 -0.82813,2.82812 z m 9.28192,4.92188 0,-9.85938 1.5,0 0,1.40625 q 1.09375,-1.625 3.14063,-1.625 0.89062,0 1.64062,0.32813 0.75,0.3125 1.10938,0.84375 0.375,0.51562 0.53125,1.21875 0.0937,0.46875 0.0937,1.625 l 0,6.0625 -1.67188,0 0,-6 q 0,-1.01563 -0.20312,-1.51563 -0.1875,-0.51562 -0.6875,-0.8125 -0.5,-0.29687 -1.17188,-0.29687 -1.0625,0 -1.84375,0.67187 -0.76562,0.67188 -0.76562,2.57813 l 0,5.375 -1.67188,0 z"
       id="path49"
       inkscape:connector-curvature="0"
       style="fill:#000000;fill-rule:nonzero" />
    <path
       d="m 434.74802,256.8768 0,0 c 0,-4.57202 3.70636,-8.27838 8.27838,-8.27838 l 317.20706,0 c 2.19556,0 4.30115,0.87219 5.8537,2.42468 1.55249,1.55251 2.42468,3.65814 2.42468,5.8537 l 0,33.11255 c 0,4.57202 -3.70636,8.27838 -8.27838,8.27838 l -317.20706,0 c -4.57202,0 -8.27838,-3.70636 -8.27838,-8.27838 z"
       id="path51"
       inkscape:connector-curvature="0"
       style="fill:#6fa8dc;fill-rule:nonzero" />
    <path
       d="m 434.74802,256.8768 0,0 c 0,-4.57202 3.70636,-8.27838 8.27838,-8.27838 l 317.20706,0 c 2.19556,0 4.30115,0.87219 5.8537,2.42468 1.55249,1.55251 2.42468,3.65814 2.42468,5.8537 l 0,33.11255 c 0,4.57202 -3.70636,8.27838 -8.27838,8.27838 l -317.20706,0 c -4.57202,0 -8.27838,-3.70636 -8.27838,-8.27838 z"
       id="path53"
       inkscape:connector-curvature="0"
       style="fill-rule:nonzero;stroke:#595959;stroke-width:1;stroke-linecap:butt;stroke-linejoin:round" />
    <path
       d="m 468.56137,269.35306 -5.28125,-13.59373 1.95312,0 3.53125,9.87498 q 0.4375,1.1875 0.71875,2.21875 0.3125,-1.10937 0.73438,-2.21875 l 3.67187,-9.87498 1.84375,0 -5.32812,13.59373 -1.84375,0 z m 15.0842,-3.17187 1.71875,0.21875 q -0.40625,1.5 -1.51563,2.34375 -1.09375,0.82812 -2.8125,0.82812 -2.15625,0 -3.42187,-1.32812 -1.26563,-1.32813 -1.26563,-3.73438 0,-2.48437 1.26563,-3.85937 1.28125,-1.375 3.32812,-1.375 1.98438,0 3.23438,1.34375 1.25,1.34375 1.25,3.79687 0,0.14063 -0.0156,0.4375 l -7.34375,0 q 0.0937,1.625 0.92188,2.48438 0.82812,0.85937 2.0625,0.85937 0.90625,0 1.54687,-0.46875 0.65625,-0.48437 1.04688,-1.54687 z m -5.48438,-2.70313 5.5,0 q -0.10937,-1.23437 -0.625,-1.85937 -0.79687,-0.96875 -2.07812,-0.96875 -1.14063,0 -1.9375,0.78125 -0.78125,0.76562 -0.85938,2.04687 z m 9.11011,5.875 0,-9.85937 1.5,0 0,1.40625 q 1.09375,-1.625 3.14062,-1.625 0.89063,0 1.64063,0.32812 0.75,0.3125 1.10937,0.84375 0.375,0.51563 0.53125,1.21875 0.0937,0.46875 0.0937,1.625 l 0,6.0625 -1.67187,0 0,-6 q 0,-1.01562 -0.20313,-1.51562 -0.1875,-0.51563 -0.6875,-0.8125 -0.5,-0.29688 -1.17187,-0.29688 -1.0625,0 -1.84375,0.67188 -0.76563,0.67187 -0.76563,2.57812 l 0,5.375 -1.67187,0 z m 16.76633,0 0,-1.25 q -0.9375,1.46875 -2.75,1.46875 -1.17188,0 -2.17188,-0.64062 -0.98437,-0.65625 -1.53125,-1.8125 -0.53125,-1.17188 -0.53125,-2.6875 0,-1.46875 0.48438,-2.67188 0.5,-1.20312 1.46875,-1.84375 0.98437,-0.64062 2.20312,-0.64062 0.89063,0 1.57813,0.375 0.70312,0.375 1.14062,0.98437 l 0,-4.87498 1.65625,0 0,13.59373 -1.54687,0 z m -5.28125,-4.92187 q 0,1.89062 0.79687,2.82812 0.8125,0.9375 1.89063,0.9375 1.09375,0 1.85937,-0.89062 0.76563,-0.89063 0.76563,-2.73438 0,-2.01562 -0.78125,-2.95312 -0.78125,-0.95313 -1.92188,-0.95313 -1.10937,0 -1.85937,0.90625 -0.75,0.90625 -0.75,2.85938 z m 8.64135,0 q 0,-2.73438 1.53125,-4.0625 1.26563,-1.09375 3.09372,-1.09375 2.03125,0 3.3125,1.34375 1.29688,1.32812 1.29688,3.67187 0,1.90625 -0.57813,3 -0.5625,1.07813 -1.65625,1.6875 -1.07812,0.59375 -2.375,0.59375 -2.06247,0 -3.34372,-1.32812 -1.28125,-1.32813 -1.28125,-3.8125 z m 1.71875,0 q 0,1.89062 0.82813,2.82812 0.82812,0.9375 2.07809,0.9375 1.25,0 2.0625,-0.9375 0.82813,-0.95312 0.82813,-2.89062 0,-1.82813 -0.82813,-2.76563 -0.82812,-0.9375 -2.0625,-0.9375 -1.24997,0 -2.07809,0.9375 -0.82813,0.9375 -0.82813,2.82813 z m 9.26633,4.92187 0,-9.85937 1.5,0 0,1.5 q 0.57813,-1.04688 1.0625,-1.375 0.48438,-0.34375 1.07813,-0.34375 0.84375,0 1.71875,0.54687 l -0.57813,1.54688 q -0.60937,-0.35938 -1.23437,-0.35938 -0.54688,0 -0.98438,0.32813 -0.42187,0.32812 -0.60937,0.90625 -0.28125,0.89062 -0.28125,1.95312 l 0,5.15625 -1.67188,0 z m 11.021,-4.375 1.6875,-0.14062 q 0.125,1.01562 0.5625,1.67187 0.4375,0.65625 1.35937,1.0625 0.9375,0.40625 2.09375,0.40625 1.03125,0 1.8125,-0.3125 0.79688,-0.3125 1.1875,-0.84375 0.39063,-0.53125 0.39063,-1.15625 0,-0.64062 -0.375,-1.10937 -0.375,-0.48438 -1.23438,-0.8125 -0.54687,-0.21875 -2.42187,-0.65625 -1.875,-0.45313 -2.625,-0.85938 -0.96875,-0.51562 -1.45313,-1.26562 -0.46875,-0.75 -0.46875,-1.6875 0,-1.03125 0.57813,-1.92188 0.59375,-0.90625 1.70312,-1.35936 1.125,-0.46875 2.5,-0.46875 1.51563,0 2.67188,0.48436 1.15625,0.48438 1.76562,1.4375 0.625,0.9375 0.67188,2.14063 l -1.71875,0.125 q -0.14063,-1.28125 -0.95313,-1.9375 -0.79687,-0.67188 -2.35937,-0.67188 -1.625,0 -2.375,0.60938 -0.75,0.59375 -0.75,1.4375 0,0.73437 0.53125,1.20312 0.51562,0.46875 2.70312,0.96875 2.20313,0.5 3.01563,0.875 1.1875,0.54688 1.75,1.39063 0.57812,0.82812 0.57812,1.92187 0,1.09375 -0.625,2.0625 -0.625,0.95313 -1.79687,1.48438 -1.15625,0.53125 -2.60938,0.53125 -1.84375,0 -3.09375,-0.53125 -1.25,-0.54688 -1.96875,-1.625 -0.70312,-1.07813 -0.73437,-2.45313 z m 12.83416,8.15625 0,-13.64062 1.53125,0 0,1.28125 q 0.53125,-0.75 1.20313,-1.125 0.6875,-0.375 1.64062,-0.375 1.26563,0 2.23438,0.65625 0.96875,0.64062 1.45312,1.82812 0.5,1.1875 0.5,2.59375 0,1.51563 -0.54687,2.73438 -0.54688,1.20312 -1.57813,1.84375 -1.03125,0.64062 -2.17187,0.64062 -0.84375,0 -1.51563,-0.34375 -0.65625,-0.35937 -1.07812,-0.89062 l 0,4.79687 -1.67188,0 z m 1.51563,-8.65625 q 0,1.90625 0.76562,2.8125 0.78125,0.90625 1.875,0.90625 1.10938,0 1.89063,-0.9375 0.79687,-0.9375 0.79687,-2.92187 0,-1.875 -0.78125,-2.8125 -0.76562,-0.9375 -1.84375,-0.9375 -1.0625,0 -1.89062,1 -0.8125,1 -0.8125,2.89062 z m 15.61011,1.70313 1.71875,0.21875 q -0.40625,1.5 -1.51563,2.34375 -1.09375,0.82812 -2.8125,0.82812 -2.15625,0 -3.42187,-1.32812 -1.26563,-1.32813 -1.26563,-3.73438 0,-2.48437 1.26563,-3.85937 1.28125,-1.375 3.32812,-1.375 1.98438,0 3.23438,1.34375 1.25,1.34375 1.25,3.79687 0,0.14063 -0.0156,0.4375 l -7.34375,0 q 0.0937,1.625 0.92188,2.48438 0.82812,0.85937 2.0625,0.85937 0.90625,0 1.54687,-0.46875 0.65625,-0.48437 1.04688,-1.54687 z m -5.48438,-2.70313 5.5,0 q -0.10937,-1.23437 -0.625,-1.85937 -0.79687,-0.96875 -2.07812,-0.96875 -1.14063,0 -1.9375,0.78125 -0.78125,0.76562 -0.85938,2.04687 z m 15.54761,2.26563 1.64062,0.21875 q -0.26562,1.6875 -1.375,2.65625 -1.10937,0.95312 -2.73437,0.95312 -2.01563,0 -3.25,-1.3125 -1.21875,-1.32812 -1.21875,-3.79687 0,-1.59375 0.51562,-2.78125 0.53125,-1.20313 1.60938,-1.79688 1.09375,-0.60937 2.35937,-0.60937 1.60938,0 2.625,0.8125 1.01563,0.8125 1.3125,2.3125 l -1.625,0.25 q -0.23437,-1 -0.82812,-1.5 -0.59375,-0.5 -1.42188,-0.5 -1.26562,0 -2.0625,0.90625 -0.78125,0.90625 -0.78125,2.85937 0,1.98438 0.76563,2.89063 0.76562,0.89062 1.98437,0.89062 0.98438,0 1.64063,-0.59375 0.65625,-0.60937 0.84375,-1.85937 z m 2.90625,-8.07813 0,-1.90623 1.67187,0 0,1.90623 -1.67187,0 z m 0,11.6875 0,-9.85937 1.67187,0 0,9.85937 -1.67187,0 z m 4.53546,0 0,-8.54687 -1.48438,0 0,-1.3125 1.48438,0 0,-1.04688 q 0,-0.98437 0.17187,-1.46875 0.23438,-0.65625 0.84375,-1.04686 0.60938,-0.40625 1.70313,-0.40625 0.70312,0 1.5625,0.15625 l -0.25,1.46874 q -0.51563,-0.0937 -0.98438,-0.0937 -0.76562,0 -1.07812,0.32812 -0.3125,0.3125 -0.3125,1.20313 l 0,0.90625 1.92187,0 0,1.3125 -1.92187,0 0,8.54687 -1.65625,0 z m 4.79266,-11.6875 0,-1.90623 1.67188,0 0,1.90623 -1.67188,0 z m 0,11.6875 0,-9.85937 1.67188,0 0,9.85937 -1.67188,0 z m 10.56671,-3.60937 1.64063,0.21875 q -0.26563,1.6875 -1.375,2.65625 -1.10938,0.95312 -2.73438,0.95312 -2.01562,0 -3.25,-1.3125 -1.21875,-1.32812 -1.21875,-3.79687 0,-1.59375 0.51563,-2.78125 0.53125,-1.20313 1.60937,-1.79688 1.09375,-0.60937 2.35938,-0.60937 1.60937,0 2.625,0.8125 1.01562,0.8125 1.3125,2.3125 l -1.625,0.25 q -0.23438,-1 -0.82813,-1.5 -0.59375,-0.5 -1.42187,-0.5 -1.26563,0 -2.0625,0.90625 -0.78125,0.90625 -0.78125,2.85937 0,1.98438 0.76562,2.89063 0.76563,0.89062 1.98438,0.89062 0.98437,0 1.64062,-0.59375 0.65625,-0.60937 0.84375,-1.85937 z m 8.33954,3.60937 0,-13.59373 1.8125,0 0,5.5781 7.0625,0 0,-5.5781 1.79688,0 0,13.59373 -1.79688,0 0,-6.40625 -7.0625,0 0,6.40625 -1.8125,0 z m 19.64484,-1.21875 q -0.9375,0.79688 -1.79688,1.125 -0.85937,0.3125 -1.84375,0.3125 -1.60937,0 -2.48437,-0.78125 -0.875,-0.79687 -0.875,-2.03125 0,-0.73437 0.32812,-1.32812 0.32813,-0.59375 0.85938,-0.95313 0.53125,-0.35937 1.20312,-0.54687 0.5,-0.14063 1.48438,-0.25 2.03125,-0.25 2.98437,-0.57813 0,-0.34375 0,-0.4375 0,-1.01562 -0.46875,-1.4375 -0.64062,-0.5625 -1.90625,-0.5625 -1.17187,0 -1.73437,0.40625 -0.5625,0.40625 -0.82813,1.46875 l -1.64062,-0.23437 q 0.23437,-1.04688 0.73437,-1.6875 0.51563,-0.64063 1.46875,-0.98438 0.96875,-0.35937 2.25,-0.35937 1.26563,0 2.04688,0.29687 0.78125,0.29688 1.15625,0.75 0.375,0.45313 0.51562,1.14063 0.0937,0.42187 0.0937,1.53125 l 0,2.23437 q 0,2.32813 0.0937,2.95313 0.10938,0.60937 0.4375,1.17187 l -1.75,0 q -0.26562,-0.51562 -0.32812,-1.21875 z m -0.14063,-3.71875 q -0.90625,0.35938 -2.73437,0.625 -1.03125,0.14063 -1.45313,0.32813 -0.42187,0.1875 -0.65625,0.54687 -0.23437,0.35938 -0.23437,0.79688 0,0.67187 0.5,1.125 0.51562,0.4375 1.48437,0.4375 0.96875,0 1.71875,-0.42188 0.75,-0.4375 1.10938,-1.15625 0.26562,-0.57812 0.26562,-1.67187 l 0,-0.60938 z m 4.06318,4.9375 0,-9.85937 1.5,0 0,1.5 q 0.57812,-1.04688 1.0625,-1.375 0.48437,-0.34375 1.07812,-0.34375 0.84375,0 1.71875,0.54687 l -0.57812,1.54688 q -0.60938,-0.35938 -1.23438,-0.35938 -0.54687,0 -0.98437,0.32813 -0.42188,0.32812 -0.60938,0.90625 -0.28125,0.89062 -0.28125,1.95312 l 0,5.15625 -1.67187,0 z m 12.61895,0 0,-1.25 q -0.9375,1.46875 -2.75,1.46875 -1.17187,0 -2.17187,-0.64062 -0.98438,-0.65625 -1.53125,-1.8125 -0.53125,-1.17188 -0.53125,-2.6875 0,-1.46875 0.48437,-2.67188 0.5,-1.20312 1.46875,-1.84375 0.98438,-0.64062 2.20313,-0.64062 0.89062,0 1.57812,0.375 0.70313,0.375 1.14063,0.98437 l 0,-4.87498 1.65625,0 0,13.59373 -1.54688,0 z m -5.28125,-4.92187 q 0,1.89062 0.79688,2.82812 0.8125,0.9375 1.89062,0.9375 1.09375,0 1.85938,-0.89062 0.76562,-0.89063 0.76562,-2.73438 0,-2.01562 -0.78125,-2.95312 -0.78125,-0.95313 -1.92187,-0.95313 -1.10938,0 -1.85938,0.90625 -0.75,0.90625 -0.75,2.85938 z m 11.09449,4.92187 -3.01563,-9.85937 1.71875,0 1.5625,5.6875 0.59375,2.125 q 0.0312,-0.15625 0.5,-2.03125 l 1.57813,-5.78125 1.71875,0 1.46875,5.71875 0.48437,1.89062 0.57813,-1.90625 1.6875,-5.70312 1.625,0 -3.07813,9.85937 -1.73437,0 -1.57813,-5.90625 -0.375,-1.67187 -2,7.57812 -1.73437,0 z m 18.08227,-1.21875 q -0.9375,0.79688 -1.79687,1.125 -0.85938,0.3125 -1.84375,0.3125 -1.60938,0 -2.48438,-0.78125 -0.875,-0.79687 -0.875,-2.03125 0,-0.73437 0.32813,-1.32812 0.32812,-0.59375 0.85937,-0.95313 0.53125,-0.35937 1.20313,-0.54687 0.5,-0.14063 1.48437,-0.25 2.03125,-0.25 2.98438,-0.57813 0,-0.34375 0,-0.4375 0,-1.01562 -0.46875,-1.4375 -0.64063,-0.5625 -1.90625,-0.5625 -1.17188,0 -1.73438,0.40625 -0.5625,0.40625 -0.82812,1.46875 l -1.64063,-0.23437 q 0.23438,-1.04688 0.73438,-1.6875 0.51562,-0.64063 1.46875,-0.98438 0.96875,-0.35937 2.25,-0.35937 1.26562,0 2.04687,0.29687 0.78125,0.29688 1.15625,0.75 0.375,0.45313 0.51563,1.14063 0.0937,0.42187 0.0937,1.53125 l 0,2.23437 q 0,2.32813 0.0937,2.95313 0.10937,0.60937 0.4375,1.17187 l -1.75,0 q -0.26563,-0.51562 -0.32813,-1.21875 z m -0.14062,-3.71875 q -0.90625,0.35938 -2.73438,0.625 -1.03125,0.14063 -1.45312,0.32813 -0.42188,0.1875 -0.65625,0.54687 -0.23438,0.35938 -0.23438,0.79688 0,0.67187 0.5,1.125 0.51563,0.4375 1.48438,0.4375 0.96875,0 1.71875,-0.42188 0.75,-0.4375 1.10937,-1.15625 0.26563,-0.57812 0.26563,-1.67187 l 0,-0.60938 z m 4.06323,4.9375 0,-9.85937 1.5,0 0,1.5 q 0.57812,-1.04688 1.0625,-1.375 0.48437,-0.34375 1.07812,-0.34375 0.84375,0 1.71875,0.54687 l -0.57812,1.54688 q -0.60938,-0.35938 -1.23438,-0.35938 -0.54687,0 -0.98437,0.32813 -0.42188,0.32812 -0.60938,0.90625 -0.28125,0.89062 -0.28125,1.95312 l 0,5.15625 -1.67187,0 z m 12.97833,-3.17187 1.71875,0.21875 q -0.40625,1.5 -1.51562,2.34375 -1.09375,0.82812 -2.8125,0.82812 -2.15625,0 -3.42188,-1.32812 -1.26562,-1.32813 -1.26562,-3.73438 0,-2.48437 1.26562,-3.85937 1.28125,-1.375 3.32813,-1.375 1.98437,0 3.23437,1.34375 1.25,1.34375 1.25,3.79687 0,0.14063 -0.0156,0.4375 l -7.34375,0 q 0.0937,1.625 0.92187,2.48438 0.82813,0.85937 2.0625,0.85937 0.90625,0 1.54688,-0.46875 0.65625,-0.48437 1.04687,-1.54687 z m -5.48437,-2.70313 5.5,0 q -0.10938,-1.23437 -0.625,-1.85937 -0.79688,-0.96875 -2.07813,-0.96875 -1.14062,0 -1.9375,0.78125 -0.78125,0.76562 -0.85937,2.04687 z m 14.43402,5.875 0,-13.59373 5.10937,0 q 1.54688,0 2.48432,0.40623 0.95312,0.40625 1.48437,1.26562 0.53125,0.85938 0.53125,1.79688 0,0.875 -0.46875,1.65625 -0.46875,0.76562 -1.4375,1.23437 1.23438,0.35938 1.89063,1.23438 0.67187,0.875 0.67187,2.0625 0,0.95312 -0.40625,1.78125 -0.39062,0.8125 -0.98437,1.26562 -0.59375,0.4375 -1.5,0.67188 -0.89057,0.21875 -2.18744,0.21875 l -5.1875,0 z m 1.79687,-7.89062 2.9375,0 q 1.20313,0 1.71875,-0.15625 0.68744,-0.20313 1.03119,-0.67188 0.35938,-0.46875 0.35938,-1.1875 0,-0.67187 -0.32813,-1.1875 -0.32812,-0.51562 -0.93744,-0.70312 -0.59375,-0.20313 -2.0625,-0.20313 l -2.71875,0 0,4.10938 z m 0,6.28125 3.39063,0 q 0.875,0 1.21875,-0.0625 0.62494,-0.10938 1.04681,-0.35938 0.42188,-0.26562 0.6875,-0.76562 0.26563,-0.5 0.26563,-1.14063 0,-0.76562 -0.39063,-1.32812 -0.39062,-0.5625 -1.07812,-0.78125 -0.68744,-0.23438 -1.98432,-0.23438 l -3.15625,0 0,4.67188 z m 10.47479,1.60937 0,-13.59373 1.67188,0 0,13.59373 -1.67188,0 z m 3.55109,-4.92187 q 0,-2.73438 1.53125,-4.0625 1.26563,-1.09375 3.09375,-1.09375 2.03125,0 3.3125,1.34375 1.29688,1.32812 1.29688,3.67187 0,1.90625 -0.57813,3 -0.5625,1.07813 -1.65625,1.6875 -1.07812,0.59375 -2.375,0.59375 -2.0625,0 -3.34375,-1.32812 -1.28125,-1.32813 -1.28125,-3.8125 z m 1.71875,0 q 0,1.89062 0.82813,2.82812 0.82812,0.9375 2.07812,0.9375 1.25,0 2.0625,-0.9375 0.82813,-0.95312 0.82813,-2.89062 0,-1.82813 -0.82813,-2.76563 -0.82812,-0.9375 -2.0625,-0.9375 -1.25,0 -2.07812,0.9375 -0.82813,0.9375 -0.82813,2.82813 z m 15.71942,1.3125 1.64063,0.21875 q -0.26563,1.6875 -1.375,2.65625 -1.10938,0.95312 -2.73438,0.95312 -2.01562,0 -3.25,-1.3125 -1.21875,-1.32812 -1.21875,-3.79687 0,-1.59375 0.51563,-2.78125 0.53125,-1.20313 1.60937,-1.79688 1.09375,-0.60937 2.35938,-0.60937 1.60937,0 2.625,0.8125 1.01562,0.8125 1.3125,2.3125 l -1.625,0.25 q -0.23438,-1 -0.82813,-1.5 -0.59375,-0.5 -1.42187,-0.5 -1.26563,0 -2.0625,0.90625 -0.78125,0.90625 -0.78125,2.85937 0,1.98438 0.76562,2.89063 0.76563,0.89062 1.98438,0.89062 0.98437,0 1.64062,-0.59375 0.65625,-0.60937 0.84375,-1.85937 z m 2.90625,3.60937 0,-13.59373 1.67188,0 0,7.74998 3.95312,-4.01563 2.15625,0 -3.76562,3.65625 4.14062,6.20313 -2.0625,0 -3.25,-5.03125 -1.17187,1.125 0,3.90625 -1.67188,0 z m 8.64063,-2.9375 1.65625,-0.26562 q 0.14062,1 0.76562,1.53125 0.64063,0.51562 1.78125,0.51562 1.15625,0 1.70313,-0.46875 0.5625,-0.46875 0.5625,-1.09375 0,-0.5625 -0.48438,-0.89062 -0.34375,-0.21875 -1.70312,-0.5625 -1.84375,-0.46875 -2.5625,-0.79688 -0.70313,-0.34375 -1.07813,-0.9375 -0.35937,-0.60937 -0.35937,-1.32812 0,-0.65625 0.29687,-1.21875 0.3125,-0.5625 0.82813,-0.9375 0.39062,-0.28125 1.0625,-0.48438 0.67187,-0.20312 1.4375,-0.20312 1.17187,0 2.04687,0.34375 0.875,0.32812 1.28125,0.90625 0.42188,0.5625 0.57813,1.51562 l -1.625,0.21875 q -0.10938,-0.75 -0.65625,-1.17187 -0.53125,-0.4375 -1.5,-0.4375 -1.15625,0 -1.64063,0.39062 -0.48437,0.375 -0.48437,0.875 0,0.32813 0.20312,0.59375 0.20313,0.26563 0.64063,0.4375 0.25,0.0937 1.46875,0.4375 1.76562,0.46875 2.46875,0.76563 0.70312,0.29687 1.09375,0.875 0.40625,0.57812 0.40625,1.4375 0,0.82812 -0.48438,1.57812 -0.48437,0.73438 -1.40625,1.14063 -0.92187,0.39062 -2.07812,0.39062 -1.92188,0 -2.9375,-0.79687 -1,-0.79688 -1.28125,-2.35938 z"
       id="path55"
       inkscape:connector-curvature="0"
       style="fill:#000000;fill-rule:nonzero" />
    <path
       d="m 515.9861,290.1343 q -0.9375,0.79687 -1.79688,1.125 -0.85937,0.3125 -1.84375,0.3125 -1.6094,0 -2.4844,-0.78125 -0.875,-0.79688 -0.875,-2.03125 0,-0.73438 0.32812,-1.32813 0.32813,-0.59375 0.85938,-0.95312 0.53125,-0.35938 1.20312,-0.54688 0.5,-0.14062 1.48441,-0.25 2.03125,-0.25 2.98437,-0.57812 0,-0.34375 0,-0.4375 0,-1.01563 -0.46875,-1.4375 -0.64062,-0.5625 -1.90625,-0.5625 -1.17187,0 -1.7344,0.40625 -0.5625,0.40625 -0.82813,1.46875 l -1.64062,-0.23438 q 0.23437,-1.04687 0.73437,-1.6875 0.51563,-0.64062 1.46875,-0.98437 0.96878,-0.35938 2.25003,-0.35938 1.26563,0 2.04688,0.29688 0.78125,0.29687 1.15625,0.75 0.375,0.45312 0.51562,1.14062 0.0937,0.42188 0.0937,1.53125 l 0,2.23438 q 0,2.32812 0.0937,2.95312 0.10938,0.60938 0.4375,1.17188 l -1.75,0 q -0.26562,-0.51563 -0.32812,-1.21875 z m -0.14063,-3.71875 q -0.90625,0.35937 -2.73437,0.625 -1.03125,0.14062 -1.45316,0.32812 -0.42187,0.1875 -0.65625,0.54688 -0.23437,0.35937 -0.23437,0.79687 0,0.67188 0.5,1.125 0.51562,0.4375 1.4844,0.4375 0.96875,0 1.71875,-0.42187 0.75,-0.4375 1.10938,-1.15625 0.26562,-0.57813 0.26562,-1.67188 l 0,-0.60937 z m 4.0788,4.9375 0,-9.85938 1.5,0 0,1.40625 q 1.09375,-1.625 3.14063,-1.625 0.89062,0 1.64062,0.32813 0.75,0.3125 1.10938,0.84375 0.375,0.51562 0.53125,1.21875 0.0937,0.46875 0.0937,1.625 l 0,6.0625 -1.67188,0 0,-6 q 0,-1.01563 -0.20312,-1.51563 -0.1875,-0.51562 -0.6875,-0.8125 -0.5,-0.29687 -1.17188,-0.29687 -1.0625,0 -1.84375,0.67187 -0.76562,0.67188 -0.76562,2.57813 l 0,5.375 -1.67188,0 z m 16.76636,0 0,-1.25 q -0.9375,1.46875 -2.75,1.46875 -1.17188,0 -2.17188,-0.64063 -0.98437,-0.65625 -1.53125,-1.8125 -0.53125,-1.17187 -0.53125,-2.6875 0,-1.46875 0.48438,-2.67187 0.5,-1.20313 1.46875,-1.84375 0.98437,-0.64063 2.20312,-0.64063 0.89063,0 1.57813,0.375 0.70312,0.375 1.14062,0.98438 l 0,-4.875 1.65625,0 0,13.59375 -1.54687,0 z m -5.28125,-4.92188 q 0,1.89063 0.79687,2.82813 0.8125,0.9375 1.89063,0.9375 1.09375,0 1.85937,-0.89063 0.76563,-0.89062 0.76563,-2.73437 0,-2.01563 -0.78125,-2.95313 -0.78125,-0.95312 -1.92188,-0.95312 -1.10937,0 -1.85937,0.90625 -0.75,0.90625 -0.75,2.85937 z m 14.05902,0.54688 1.6875,-0.14063 q 0.125,1.01563 0.5625,1.67188 0.4375,0.65625 1.35937,1.0625 0.9375,0.40625 2.09375,0.40625 1.03125,0 1.8125,-0.3125 0.79688,-0.3125 1.1875,-0.84375 0.39063,-0.53125 0.39063,-1.15625 0,-0.64063 -0.375,-1.10938 -0.375,-0.48437 -1.23438,-0.8125 -0.54687,-0.21875 -2.42187,-0.65625 -1.875,-0.45312 -2.625,-0.85937 -0.96875,-0.51563 -1.45313,-1.26563 -0.46875,-0.75 -0.46875,-1.6875 0,-1.03125 0.57813,-1.92187 0.59375,-0.90625 1.70312,-1.35938 1.125,-0.46875 2.5,-0.46875 1.51563,0 2.67188,0.48438 1.15625,0.48437 1.76562,1.4375 0.625,0.9375 0.67188,2.14062 l -1.71875,0.125 q -0.14063,-1.28125 -0.95313,-1.9375 -0.79687,-0.67187 -2.35937,-0.67187 -1.625,0 -2.375,0.60937 -0.75,0.59375 -0.75,1.4375 0,0.73438 0.53125,1.20313 0.51562,0.46875 2.70312,0.96875 2.20313,0.5 3.01563,0.875 1.1875,0.54687 1.75,1.39062 0.57812,0.82813 0.57812,1.92188 0,1.09375 -0.625,2.0625 -0.625,0.95312 -1.79687,1.48437 -1.15625,0.53125 -2.60938,0.53125 -1.84375,0 -3.09375,-0.53125 -1.25,-0.54687 -1.96875,-1.625 -0.70312,-1.07812 -0.73437,-2.45312 z m 12.20923,-0.54688 q 0,-2.73437 1.53125,-4.0625 1.26562,-1.09375 3.09375,-1.09375 2.03125,0 3.3125,1.34375 1.29687,1.32813 1.29687,3.67188 0,1.90625 -0.57812,3 -0.5625,1.07812 -1.65625,1.6875 -1.07813,0.59375 -2.375,0.59375 -2.0625,0 -3.34375,-1.32813 -1.28125,-1.32812 -1.28125,-3.8125 z m 1.71875,0 q 0,1.89063 0.82812,2.82813 0.82813,0.9375 2.07813,0.9375 1.25,0 2.0625,-0.9375 0.82812,-0.95313 0.82812,-2.89063 0,-1.82812 -0.82812,-2.76562 -0.82813,-0.9375 -2.0625,-0.9375 -1.25,0 -2.07813,0.9375 -0.82812,0.9375 -0.82812,2.82812 z m 9.68817,4.92188 0,-8.54688 -1.48438,0 0,-1.3125 1.48438,0 0,-1.04687 q 0,-0.98438 0.17187,-1.46875 0.23438,-0.65625 0.84375,-1.04688 0.60938,-0.40625 1.70313,-0.40625 0.70312,0 1.5625,0.15625 l -0.25,1.46875 q -0.51563,-0.0937 -0.98438,-0.0937 -0.76562,0 -1.07812,0.32813 -0.3125,0.3125 -0.3125,1.20312 l 0,0.90625 1.92187,0 0,1.3125 -1.92187,0 0,8.54688 -1.65625,0 z m 8.43335,-1.5 0.23437,1.48437 q -0.70312,0.14063 -1.26562,0.14063 -0.90625,0 -1.40625,-0.28125 -0.5,-0.29688 -0.70313,-0.75 -0.20312,-0.46875 -0.20312,-1.98438 l 0,-5.65625 -1.23438,0 0,-1.3125 1.23438,0 0,-2.4375 1.65625,-1 0,3.4375 1.6875,0 0,1.3125 -1.6875,0 0,5.75 q 0,0.71875 0.0781,0.92188 0.0937,0.20312 0.29688,0.32812 0.20312,0.125 0.57812,0.125 0.26563,0 0.73438,-0.0781 z m 3.35516,1.5 -3.01562,-9.85938 1.71875,0 1.5625,5.6875 0.59375,2.125 q 0.0312,-0.15625 0.5,-2.03125 l 1.57812,-5.78125 1.71875,0 1.46875,5.71875 0.48438,1.89063 0.57812,-1.90625 1.6875,-5.70313 1.625,0 -3.07812,9.85938 -1.73438,0 -1.57812,-5.90625 -0.375,-1.67188 -2,7.57813 -1.73438,0 z m 18.08234,-1.21875 q -0.9375,0.79687 -1.79688,1.125 -0.85937,0.3125 -1.84375,0.3125 -1.60937,0 -2.48437,-0.78125 -0.875,-0.79688 -0.875,-2.03125 0,-0.73438 0.32812,-1.32813 0.32813,-0.59375 0.85938,-0.95312 0.53125,-0.35938 1.20312,-0.54688 0.5,-0.14062 1.48438,-0.25 2.03125,-0.25 2.98437,-0.57812 0,-0.34375 0,-0.4375 0,-1.01563 -0.46875,-1.4375 -0.64062,-0.5625 -1.90625,-0.5625 -1.17187,0 -1.73437,0.40625 -0.5625,0.40625 -0.82813,1.46875 l -1.64062,-0.23438 q 0.23437,-1.04687 0.73437,-1.6875 0.51563,-0.64062 1.46875,-0.98437 0.96875,-0.35938 2.25,-0.35938 1.26563,0 2.04688,0.29688 0.78125,0.29687 1.15625,0.75 0.375,0.45312 0.51562,1.14062 0.0937,0.42188 0.0937,1.53125 l 0,2.23438 q 0,2.32812 0.0937,2.95312 0.10938,0.60938 0.4375,1.17188 l -1.75,0 q -0.26562,-0.51563 -0.32812,-1.21875 z m -0.14063,-3.71875 q -0.90625,0.35937 -2.73437,0.625 -1.03125,0.14062 -1.45313,0.32812 -0.42187,0.1875 -0.65625,0.54688 -0.23437,0.35937 -0.23437,0.79687 0,0.67188 0.5,1.125 0.51562,0.4375 1.48437,0.4375 0.96875,0 1.71875,-0.42187 0.75,-0.4375 1.10938,-1.15625 0.26562,-0.57813 0.26562,-1.67188 l 0,-0.60937 z m 4.06317,4.9375 0,-9.85938 1.5,0 0,1.5 q 0.57813,-1.04687 1.0625,-1.375 0.48438,-0.34375 1.07813,-0.34375 0.84375,0 1.71875,0.54688 l -0.57813,1.54687 q -0.60937,-0.35937 -1.23437,-0.35937 -0.54688,0 -0.98438,0.32812 -0.42187,0.32813 -0.60937,0.90625 -0.28125,0.89063 -0.28125,1.95313 l 0,5.15625 -1.67188,0 z m 12.97834,-3.17188 1.71875,0.21875 q -0.40625,1.5 -1.51563,2.34375 -1.09375,0.82813 -2.8125,0.82813 -2.15625,0 -3.42187,-1.32813 -1.26563,-1.32812 -1.26563,-3.73437 0,-2.48438 1.26563,-3.85938 1.28125,-1.375 3.32812,-1.375 1.98438,0 3.23438,1.34375 1.25,1.34375 1.25,3.79688 0,0.14062 -0.0156,0.4375 l -7.34375,0 q 0.0937,1.625 0.92188,2.48437 0.82812,0.85938 2.0625,0.85938 0.90625,0 1.54687,-0.46875 0.65625,-0.48438 1.04688,-1.54688 z m -5.48438,-2.70312 5.5,0 q -0.10937,-1.23438 -0.625,-1.85938 -0.79687,-0.96875 -2.07812,-0.96875 -1.14063,0 -1.9375,0.78125 -0.78125,0.76563 -0.85938,2.04688 z m 14.43402,5.875 0,-13.59375 1.79688,0 0,11.98437 6.70312,0 0,1.60938 -8.5,0 z m 10.25074,-11.6875 0,-1.90625 1.67187,0 0,1.90625 -1.67187,0 z m 0,11.6875 0,-9.85938 1.67187,0 0,9.85938 -1.67187,0 z m 5.67602,0 -1.54687,0 0,-13.59375 1.65625,0 0,4.84375 q 1.0625,-1.32813 2.70312,-1.32813 0.90625,0 1.71875,0.375 0.8125,0.35938 1.32813,1.03125 0.53125,0.65625 0.82812,1.59375 0.29688,0.9375 0.29688,2 0,2.53125 -1.25,3.92188 -1.25,1.375 -3,1.375 -1.75,0 -2.73438,-1.45313 l 0,1.23438 z m -0.0156,-5 q 0,1.76562 0.46875,2.5625 0.79687,1.28125 2.14062,1.28125 1.09375,0 1.89063,-0.9375 0.79687,-0.95313 0.79687,-2.84375 0,-1.92188 -0.76562,-2.84375 -0.76563,-0.92188 -1.84375,-0.92188 -1.09375,0 -1.89063,0.95313 -0.79687,0.95312 -0.79687,2.75 z m 8.82885,5 0,-9.85938 1.5,0 0,1.5 q 0.57813,-1.04687 1.0625,-1.375 0.48438,-0.34375 1.07813,-0.34375 0.84375,0 1.71875,0.54688 l -0.57813,1.54687 q -0.60937,-0.35937 -1.23437,-0.35937 -0.54688,0 -0.98438,0.32812 -0.42187,0.32813 -0.60937,0.90625 -0.28125,0.89063 -0.28125,1.95313 l 0,5.15625 -1.67188,0 z m 12.66584,-1.21875 q -0.9375,0.79687 -1.79688,1.125 -0.85937,0.3125 -1.84375,0.3125 -1.60937,0 -2.48437,-0.78125 -0.875,-0.79688 -0.875,-2.03125 0,-0.73438 0.32812,-1.32813 0.32813,-0.59375 0.85938,-0.95312 0.53125,-0.35938 1.20312,-0.54688 0.5,-0.14062 1.48438,-0.25 2.03125,-0.25 2.98437,-0.57812 0,-0.34375 0,-0.4375 0,-1.01563 -0.46875,-1.4375 -0.64062,-0.5625 -1.90625,-0.5625 -1.17187,0 -1.73437,0.40625 -0.5625,0.40625 -0.82813,1.46875 l -1.64062,-0.23438 q 0.23437,-1.04687 0.73437,-1.6875 0.51563,-0.64062 1.46875,-0.98437 0.96875,-0.35938 2.25,-0.35938 1.26563,0 2.04688,0.29688 0.78125,0.29687 1.15625,0.75 0.375,0.45312 0.51562,1.14062 0.0937,0.42188 0.0937,1.53125 l 0,2.23438 q 0,2.32812 0.0937,2.95312 0.10938,0.60938 0.4375,1.17188 l -1.75,0 q -0.26562,-0.51563 -0.32812,-1.21875 z m -0.14063,-3.71875 q -0.90625,0.35937 -2.73437,0.625 -1.03125,0.14062 -1.45313,0.32812 -0.42187,0.1875 -0.65625,0.54688 -0.23437,0.35937 -0.23437,0.79687 0,0.67188 0.5,1.125 0.51562,0.4375 1.48437,0.4375 0.96875,0 1.71875,-0.42187 0.75,-0.4375 1.10938,-1.15625 0.26562,-0.57813 0.26562,-1.67188 l 0,-0.60937 z m 4.06317,4.9375 0,-9.85938 1.5,0 0,1.5 q 0.57813,-1.04687 1.0625,-1.375 0.48438,-0.34375 1.07813,-0.34375 0.84375,0 1.71875,0.54688 l -0.57813,1.54687 q -0.60937,-0.35937 -1.23437,-0.35937 -0.54688,0 -0.98438,0.32812 -0.42187,0.32813 -0.60937,0.90625 -0.28125,0.89063 -0.28125,1.95313 l 0,5.15625 -1.67188,0 z m 6.24396,-11.6875 0,-1.90625 1.67187,0 0,1.90625 -1.67187,0 z m 0,11.6875 0,-9.85938 1.67187,0 0,9.85938 -1.67187,0 z m 10.87921,-3.17188 1.71875,0.21875 q -0.40625,1.5 -1.51562,2.34375 -1.09375,0.82813 -2.8125,0.82813 -2.15625,0 -3.42188,-1.32813 -1.26562,-1.32812 -1.26562,-3.73437 0,-2.48438 1.26562,-3.85938 1.28125,-1.375 3.32813,-1.375 1.98437,0 3.23437,1.34375 1.25,1.34375 1.25,3.79688 0,0.14062 -0.0156,0.4375 l -7.34375,0 q 0.0937,1.625 0.92187,2.48437 0.82813,0.85938 2.0625,0.85938 0.90625,0 1.54688,-0.46875 0.65625,-0.48438 1.04687,-1.54688 z m -5.48437,-2.70312 5.5,0 q -0.10938,-1.23438 -0.625,-1.85938 -0.79688,-0.96875 -2.07813,-0.96875 -1.14062,0 -1.9375,0.78125 -0.78125,0.76563 -0.85937,2.04688 z m 8.43817,2.9375 1.65625,-0.26563 q 0.14062,1 0.76562,1.53125 0.64063,0.51563 1.78125,0.51563 1.15625,0 1.70313,-0.46875 0.5625,-0.46875 0.5625,-1.09375 0,-0.5625 -0.48438,-0.89063 -0.34375,-0.21875 -1.70312,-0.5625 -1.84375,-0.46875 -2.5625,-0.79687 -0.70313,-0.34375 -1.07813,-0.9375 -0.35937,-0.60938 -0.35937,-1.32813 0,-0.65625 0.29687,-1.21875 0.3125,-0.5625 0.82813,-0.9375 0.39062,-0.28125 1.0625,-0.48437 0.67187,-0.20313 1.4375,-0.20313 1.17187,0 2.04687,0.34375 0.875,0.32813 1.28125,0.90625 0.42188,0.5625 0.57813,1.51563 l -1.625,0.21875 q -0.10938,-0.75 -0.65625,-1.17188 -0.53125,-0.4375 -1.5,-0.4375 -1.15625,0 -1.64063,0.39063 -0.48437,0.375 -0.48437,0.875 0,0.32812 0.20312,0.59375 0.20313,0.26562 0.64063,0.4375 0.25,0.0937 1.46875,0.4375 1.76562,0.46875 2.46875,0.76562 0.70312,0.29688 1.09375,0.875 0.40625,0.57813 0.40625,1.4375 0,0.82813 -0.48438,1.57813 -0.48437,0.73437 -1.40625,1.14062 -0.92187,0.39063 -2.07812,0.39063 -1.92188,0 -2.9375,-0.79688 -1,-0.79687 -1.28125,-2.35937 z"
       id="path57"
       inkscape:connector-curvature="0"
       style="fill:#000000;fill-rule:nonzero" />
    <path
       d="m 69.37008,323.93964 697.95276,0 0,40.81891 -697.95276,0 z"
       id="path59"
       inkscape:connector-curvature="0"
       style="fill:#eeeeee;fill-rule:nonzero" />
    <path
       d="m 69.37008,323.93964 697.95276,0 0,40.81891 -697.95276,0 z"
       id="path61"
       inkscape:connector-curvature="0"
       style="fill-rule:nonzero;stroke:#595959;stroke-width:1;stroke-linecap:butt;stroke-linejoin:round" />
    <path
       d="m 735.56433,243.35695 2.61414,0 0,-136.59842 5.22833,0 0,136.59842 2.61419,0 -5.22833,5.22835 z"
       id="path65"
       inkscape:connector-curvature="0"
       style="fill:#eeeeee;fill-rule:nonzero" />
    <path
       d="m 735.56433,243.35695 2.61414,0 0,-136.59842 5.22833,0 0,136.59842 2.61419,0 -5.22833,5.22835 z"
       id="path67"
       inkscape:connector-curvature="0"
       style="fill-rule:nonzero;stroke:#595959;stroke-width:1;stroke-linecap:butt;stroke-linejoin:round" />
    <path
       d="m 644.1627,124.74278 2.6142,0 0,-17.98425 5.22833,0 0,17.98425 2.6142,0 -5.2284,5.22835 z"
       id="path69"
       inkscape:connector-curvature="0"
       style="fill:#eeeeee;fill-rule:nonzero" />
    <path
       d="m 644.1627,124.74278 2.6142,0 0,-17.98425 5.22833,0 0,17.98425 2.6142,0 -5.2284,5.22835 z"
       id="path71"
       inkscape:connector-curvature="0"
       style="fill-rule:nonzero;stroke:#595959;stroke-width:1;stroke-linecap:butt;stroke-linejoin:round" />
    <path
       d="m 507.70865,124.74278 2.6142,0 0,-17.98425 5.22836,0 0,17.98425 2.61414,0 -5.22834,5.22835 z"
       id="path73"
       inkscape:connector-curvature="0"
       style="fill:#eeeeee;fill-rule:nonzero" />
    <path
       d="m 507.70865,124.74278 2.6142,0 0,-17.98425 5.22836,0 0,17.98425 2.61414,0 -5.22834,5.22835 z"
       id="path75"
       inkscape:connector-curvature="0"
       style="fill-rule:nonzero;stroke:#595959;stroke-width:1;stroke-linecap:butt;stroke-linejoin:round" />
    <path
       d="m 554.4383,243.36482 2.6142,0 0,-46.61417 5.22833,0 0,46.61417 2.6142,0 -5.22834,5.22835 z"
       id="path77"
       inkscape:connector-curvature="0"
       style="fill:#eeeeee;fill-rule:nonzero" />
    <path
       d="m 554.4383,243.36482 2.6142,0 0,-46.61417 5.22833,0 0,46.61417 2.6142,0 -5.22834,5.22835 z"
       id="path79"
       inkscape:connector-curvature="0"
       style="fill-rule:nonzero;stroke:#595959;stroke-width:1;stroke-linecap:butt;stroke-linejoin:round" />
    <path
       d="m 146.79265,126.68635 2.61418,0 0,-17.98424 5.22835,0 0,17.98424 2.61417,0 -5.22835,5.22836 z"
       id="path81"
       inkscape:connector-curvature="0"
       style="fill:#eeeeee;fill-rule:nonzero" />
    <path
       d="m 146.79265,126.68635 2.61418,0 0,-17.98424 5.22835,0 0,17.98424 2.61417,0 -5.22835,5.22836 z"
       id="path83"
       inkscape:connector-curvature="0"
       style="fill-rule:nonzero;stroke:#595959;stroke-width:1;stroke-linecap:butt;stroke-linejoin:round" />
    <path
       d="m 318.29922,126.68635 2.61417,0 0,-17.98424 5.22833,0 0,17.98424 2.6142,0 -5.22837,5.22836 z"
       id="path85"
       inkscape:connector-curvature="0"
       style="fill:#eeeeee;fill-rule:nonzero" />
    <path
       d="m 318.29922,126.68635 2.61417,0 0,-17.98424 5.22833,0 0,17.98424 2.6142,0 -5.22837,5.22836 z"
       id="path87"
       inkscape:connector-curvature="0"
       style="fill-rule:nonzero;stroke:#595959;stroke-width:1;stroke-linecap:butt;stroke-linejoin:round" />
    <path
       d="m 432.14172,175.54855 0,-2.61417 -32.81888,0 0,-5.22834 32.81888,0 0,-2.61419 5.22836,5.22835 z"
       id="path89"
       inkscape:connector-curvature="0"
       style="fill:#eeeeee;fill-rule:nonzero" />
    <path
       d="m 432.14172,175.54855 0,-2.61417 -32.81888,0 0,-5.22834 32.81888,0 0,-2.61419 5.22836,5.22835 z"
       id="path91"
       inkscape:connector-curvature="0"
       style="fill-rule:nonzero;stroke:#595959;stroke-width:1;stroke-linecap:butt;stroke-linejoin:round" />
    <path
       d="m 225.1076,318.70996 2.61418,0 0,-17.98425 5.22835,0 0,17.98425 2.61417,0 -5.22835,5.22836 z"
       id="path93"
       inkscape:connector-curvature="0"
       style="fill:#eeeeee;fill-rule:nonzero" />
    <path
       d="m 225.1076,318.70996 2.61418,0 0,-17.98425 5.22835,0 0,17.98425 2.61417,0 -5.22835,5.22836 z"
       id="path95"
       inkscape:connector-curvature="0"
       style="fill-rule:nonzero;stroke:#595959;stroke-width:1;stroke-linecap:butt;stroke-linejoin:round" />
    <path
       d="m 585.9895,318.70996 2.6142,0 0,-17.98425 5.22833,0 0,17.98425 2.61413,0 -5.22833,5.22836 z"
       id="path97"
       inkscape:connector-curvature="0"
       style="fill:#eeeeee;fill-rule:nonzero" />
    <path
       d="m 585.9895,318.70996 2.6142,0 0,-17.98425 5.22833,0 0,17.98425 2.61413,0 -5.22833,5.22836 z"
       id="path99"
       inkscape:connector-curvature="0"
       style="fill-rule:nonzero;stroke:#595959;stroke-width:1;stroke-linecap:butt;stroke-linejoin:round" />
    <text
       xml:space="preserve"
       style="font-style:normal;font-variant:normal;font-weight:normal;font-stretch:normal;font-size:17.5px;line-height:125%;font-family:Sans;-inkscape-font-specification:'Sans, Normal';text-align:start;letter-spacing:0px;word-spacing:0px;writing-mode:lr-tb;text-anchor:start;fill:#000000;fill-opacity:1;stroke:none;stroke-width:1px;stroke-linecap:butt;stroke-linejoin:miter;stroke-opacity:1"
       x="302.13242"
       y="349.45987"
       id="text4811"
       sodipodi:linespacing="125%"><tspan
         sodipodi:role="line"
         id="tspan4813"
         x="302.13242"
         y="349.45987">HW Platform (SoC or Server)</tspan></text>
  </g>
</svg>
