<?xml version="1.0" standalone="yes"?>
<svg xmlns="http://www.w3.org/2000/svg" xmlns:xlink="http://www.w3.org/1999/xlink" version="1.1" viewBox="0.0 0.0 600.8057742782153 247.9028871391076" fill="none" stroke="none" stroke-linecap="square" stroke-miterlimit="10">
  <clipPath id="p.0">
    <path d="m0 0l600.8058 0l0 247.9029l-600.8058 0l0 -247.9029z" clip-rule="nonzero"/>
  </clipPath>
  <g clip-path="url(#p.0)">
    <path fill="#000000" fill-opacity="0.0" d="m0 0l600.8058 0l0 247.9029l-600.8058 0z" fill-rule="nonzero"/>
    <path fill="#000000" fill-opacity="0.0" d="m265.80447 92.65092l324.18893 -0.06298828" fill-rule="nonzero"/>
    <path stroke="#000000" stroke-width="1.0" stroke-linejoin="round" stroke-linecap="butt" d="m265.80447 92.65092l318.18893 -0.061820984" fill-rule="evenodd"/>
    <path fill="#000000" stroke="#000000" stroke-width="1.0" stroke-linecap="butt" d="m583.9938 94.24082l4.537781 -1.6526108l-4.538452 -1.6508484z" fill-rule="evenodd"/>
    <path fill="#000000" fill-opacity="0.0" d="m272.1824 149.41208l317.82675 0.31495667" fill-rule="nonzero"/>
    <path stroke="#000000" stroke-width="1.0" stroke-linejoin="round" stroke-linecap="butt" d="m272.1824 149.41208l311.8268 0.30900574" fill-rule="evenodd"/>
    <path fill="#000000" stroke="#000000" stroke-width="1.0" stroke-linecap="butt" d="m584.00757 151.37282l4.539734 -1.647232l-4.536499 -1.6562347z" fill-rule="evenodd"/>
    <path fill="#000000" fill-opacity="0.0" d="m276.16928 203.3924l318.4252 1.1338501" fill-rule="nonzero"/>
    <path stroke="#000000" stroke-width="1.0" stroke-linejoin="round" stroke-linecap="butt" d="m276.16928 203.3924l312.42526 1.1124878" fill-rule="evenodd"/>
    <path fill="#000000" stroke="#000000" stroke-width="1.0" stroke-linecap="butt" d="m588.5886 206.1566l4.5439453 -1.6355591l-4.5321655 -1.6678772z" fill-rule="evenodd"/>
    <path fill="#b6d7a8" d="m276.1701 92.65092l0 0c0 -5.9664154 4.8155823 -10.803146 10.75592 -10.803146l0 0c2.8526306 0 5.58844 1.1381836 7.6055603 3.1641693c2.0171204 2.025978 3.1503296 4.7738037 3.1503296 7.638977l0 0c0 5.9664154 -4.8155823 10.803154 -10.75589 10.803154l0 0c-5.940338 0 -10.75592 -4.8367386 -10.75592 -10.803154z" fill-rule="nonzero"/>
    <path stroke="#000000" stroke-width="1.0" stroke-linejoin="round" stroke-linecap="butt" d="m276.1701 92.65092l0 0c0 -5.9664154 4.8155823 -10.803146 10.75592 -10.803146l0 0c2.8526306 0 5.58844 1.1381836 7.6055603 3.1641693c2.0171204 2.025978 3.1503296 4.7738037 3.1503296 7.638977l0 0c0 5.9664154 -4.8155823 10.803154 -10.75589 10.803154l0 0c-5.940338 0 -10.75592 -4.8367386 -10.75592 -10.803154z" fill-rule="nonzero"/>
    <path fill="#b6d7a8" d="m507.74753 89.490814l0 0c0 -5.9664154 4.8155823 -10.803146 10.75589 -10.803146l0 0c2.8526611 0 5.588501 1.1381836 7.605591 3.1641617c2.0171509 2.0259857 3.1503296 4.7738113 3.1503296 7.6389847l0 0c0 5.9664154 -4.8155518 10.803146 -10.75592 10.803146l0 0c-5.9403076 0 -10.75589 -4.836731 -10.75589 -10.803146z" fill-rule="nonzero"/>
    <path stroke="#000000" stroke-width="1.0" stroke-linejoin="round" stroke-linecap="butt" d="m507.74753 89.490814l0 0c0 -5.9664154 4.8155823 -10.803146 10.75589 -10.803146l0 0c2.8526611 0 5.588501 1.1381836 7.605591 3.1641617c2.0171509 2.0259857 3.1503296 4.7738113 3.1503296 7.6389847l0 0c0 5.9664154 -4.8155518 10.803146 -10.75592 10.803146l0 0c-5.9403076 0 -10.75589 -4.836731 -10.75589 -10.803146z" fill-rule="nonzero"/>
    <path fill="#cfe2f3" d="m460.03494 148.78215l0 0c0 -5.9664154 4.8155823 -10.803146 10.75589 -10.803146l0 0c2.8526611 0 5.5884705 1.1381836 7.605591 3.1641693c2.0171204 2.0259857 3.1503296 4.7738037 3.1503296 7.638977l0 0c0 5.9664154 -4.8155823 10.803146 -10.75592 10.803146l0 0c-5.9403076 0 -10.75589 -4.836731 -10.75589 -10.803146z" fill-rule="nonzero"/>
    <path stroke="#000000" stroke-width="1.0" stroke-linejoin="round" stroke-linecap="butt" d="m460.03494 148.78215l0 0c0 -5.9664154 4.8155823 -10.803146 10.75589 -10.803146l0 0c2.8526611 0 5.5884705 1.1381836 7.605591 3.1641693c2.0171204 2.0259857 3.1503296 4.7738037 3.1503296 7.638977l0 0c0 5.9664154 -4.8155823 10.803146 -10.75592 10.803146l0 0c-5.9403076 0 -10.75589 -4.836731 -10.75589 -10.803146z" fill-rule="nonzero"/>
    <path fill="#b6d7a8" d="m392.66092 92.65092l0 0c0 -5.9664154 4.8155823 -10.803146 10.75592 -10.803146l0 0c2.8526306 0 5.58844 1.1381836 7.6055603 3.1641693c2.0171204 2.025978 3.1503296 4.7738037 3.1503296 7.638977l0 0c0 5.9664154 -4.8155823 10.803154 -10.75589 10.803154l0 0c-5.940338 0 -10.75592 -4.8367386 -10.75592 -10.803154z" fill-rule="nonzero"/>
    <path stroke="#000000" stroke-width="1.0" stroke-linejoin="round" stroke-linecap="butt" d="m392.66092 92.65092l0 0c0 -5.9664154 4.8155823 -10.803146 10.75592 -10.803146l0 0c2.8526306 0 5.58844 1.1381836 7.6055603 3.1641693c2.0171204 2.025978 3.1503296 4.7738037 3.1503296 7.638977l0 0c0 5.9664154 -4.8155823 10.803154 -10.75589 10.803154l0 0c-5.940338 0 -10.75592 -4.8367386 -10.75592 -10.803154z" fill-rule="nonzero"/>
    <path fill="#d5a6bd" d="m345.6924 204.55118l0 0c0 -5.9664154 4.8155823 -10.803146 10.75592 -10.803146l0 0c2.8526306 0 5.58844 1.1381836 7.6055603 3.1641693c2.0171204 2.0259857 3.1503296 4.7738037 3.1503296 7.638977l0 0c0 5.9664154 -4.8155823 10.803146 -10.75589 10.803146l0 0c-5.940338 0 -10.75592 -4.836731 -10.75592 -10.803146z" fill-rule="nonzero"/>
    <path stroke="#000000" stroke-width="1.0" stroke-linejoin="round" stroke-linecap="butt" d="m345.6924 204.55118l0 0c0 -5.9664154 4.8155823 -10.803146 10.75592 -10.803146l0 0c2.8526306 0 5.58844 1.1381836 7.6055603 3.1641693c2.0171204 2.0259857 3.1503296 4.7738037 3.1503296 7.638977l0 0c0 5.9664154 -4.8155823 10.803146 -10.75589 10.803146l0 0c-5.940338 0 -10.75592 -4.836731 -10.75592 -10.803146z" fill-rule="nonzero"/>
    <path fill="#000000" fill-opacity="0.0" d="m182.08923 74.65076l88.09448 0l0 36.0l-88.09448 0z" fill-rule="nonzero"/>
    <path fill="#000000" d="m192.33923 99.570755l0 -9.859375l1.5 0l0 1.390625q0.453125 -0.71875 1.21875 -1.15625q0.78125 -0.453125 1.765625 -0.453125q1.09375 0 1.796875 0.453125q0.703125 0.453125 0.984375 1.28125q1.171875 -1.734375 3.046875 -1.734375q1.46875 0 2.25 0.8125q0.796875 0.8125 0.796875 2.5l0 6.765625l-1.671875 0l0 -6.203125q0 -1.0 -0.15625 -1.4375q-0.15625 -0.453125 -0.59375 -0.71875q-0.421875 -0.265625 -1.0 -0.265625q-1.03125 0 -1.71875 0.6875q-0.6875 0.6875 -0.6875 2.21875l0 5.71875l-1.671875 0l0 -6.40625q0 -1.109375 -0.40625 -1.65625q-0.40625 -0.5625 -1.34375 -0.5625q-0.703125 0 -1.3125 0.375q-0.59375 0.359375 -0.859375 1.078125q-0.265625 0.71875 -0.265625 2.0625l0 5.109375l-1.671875 0zm21.978302 -1.21875q-0.9375 0.796875 -1.796875 1.125q-0.859375 0.3125 -1.84375 0.3125q-1.609375 0 -2.484375 -0.78125q-0.875 -0.796875 -0.875 -2.03125q0 -0.734375 0.328125 -1.328125q0.328125 -0.59375 0.859375 -0.953125q0.53125 -0.359375 1.203125 -0.546875q0.5 -0.140625 1.484375 -0.25q2.03125 -0.25 2.984375 -0.578125q0 -0.34375 0 -0.4375q0 -1.015625 -0.46875 -1.4375q-0.640625 -0.5625 -1.90625 -0.5625q-1.171875 0 -1.734375 0.40625q-0.5625 0.40625 -0.828125 1.46875l-1.640625 -0.234375q0.234375 -1.046875 0.734375 -1.6875q0.515625 -0.640625 1.46875 -0.984375q0.96875 -0.359375 2.25 -0.359375q1.265625 0 2.046875 0.296875q0.78125 0.296875 1.15625 0.75q0.375 0.453125 0.515625 1.140625q0.09375 0.421875 0.09375 1.53125l0 2.234375q0 2.328125 0.09375 2.953125q0.109375 0.609375 0.4375 1.171875l-1.75 0q-0.265625 -0.515625 -0.328125 -1.21875zm-0.140625 -3.71875q-0.90625 0.359375 -2.734375 0.625q-1.03125 0.140625 -1.453125 0.328125q-0.421875 0.1875 -0.65625 0.546875q-0.234375 0.359375 -0.234375 0.796875q0 0.671875 0.5 1.125q0.515625 0.4375 1.484375 0.4375q0.96875 0 1.71875 -0.421875q0.75 -0.4375 1.109375 -1.15625q0.265625 -0.578125 0.265625 -1.671875l0 -0.609375zm3.4069672 2.0l1.65625 -0.265625q0.140625 1.0 0.765625 1.53125q0.640625 0.515625 1.78125 0.515625q1.15625 0 1.703125 -0.46875q0.5625 -0.46875 0.5625 -1.09375q0 -0.5625 -0.484375 -0.890625q-0.34375 -0.21875 -1.703125 -0.5625q-1.84375 -0.46875 -2.5625 -0.796875q-0.703125 -0.34375 -1.078125 -0.9375q-0.359375 -0.609375 -0.359375 -1.328125q0 -0.65625 0.296875 -1.21875q0.3125 -0.5625 0.828125 -0.9375q0.390625 -0.28125 1.0625 -0.484375q0.671875 -0.203125 1.4375 -0.203125q1.171875 0 2.046875 0.34375q0.875 0.328125 1.28125 0.90625q0.421875 0.5625 0.578125 1.515625l-1.625 0.21875q-0.109375 -0.75 -0.65625 -1.171875q-0.53125 -0.4375 -1.5 -0.4375q-1.15625 0 -1.640625 0.390625q-0.484375 0.375 -0.484375 0.875q0 0.328125 0.203125 0.59375q0.203125 0.265625 0.640625 0.4375q0.25 0.09375 1.46875 0.4375q1.765625 0.46875 2.46875 0.765625q0.703125 0.296875 1.09375 0.875q0.40625 0.578125 0.40625 1.4375q0 0.828125 -0.484375 1.578125q-0.484375 0.734375 -1.40625 1.140625q-0.921875 0.390625 -2.078125 0.390625q-1.921875 0 -2.9375 -0.796875q-1.0 -0.796875 -1.28125 -2.359375zm13.65625 1.4375l0.234375 1.484375q-0.703125 0.140625 -1.265625 0.140625q-0.90625 0 -1.40625 -0.28125q-0.5 -0.296875 -0.703125 -0.75q-0.203125 -0.46875 -0.203125 -1.984375l0 -5.65625l-1.234375 0l0 -1.3125l1.234375 0l0 -2.4375l1.65625 -1.0l0 3.4375l1.6875 0l0 1.3125l-1.6875 0l0 5.75q0 0.71875 0.078125 0.921875q0.09375 0.203125 0.296875 0.328125q0.203125 0.125 0.578125 0.125q0.265625 0 0.734375 -0.078125zm8.277054 -1.671875l1.71875 0.21875q-0.40625 1.5 -1.515625 2.34375q-1.09375 0.828125 -2.8125 0.828125q-2.15625 0 -3.421875 -1.328125q-1.265625 -1.328125 -1.265625 -3.734375q0 -2.484375 1.265625 -3.859375q1.28125 -1.375 3.328125 -1.375q1.984375 0 3.234375 1.34375q1.25 1.34375 1.25 3.796875q0 0.140625 -0.015625 0.4375l-7.34375 0q0.09375 1.625 0.921875 2.484375q0.828125 0.859375 2.0625 0.859375q0.90625 0 1.546875 -0.46875q0.65625 -0.484375 1.046875 -1.546875zm-5.484375 -2.703125l5.5 0q-0.109375 -1.234375 -0.625 -1.859375q-0.796875 -0.96875 -2.078125 -0.96875q-1.140625 0 -1.9375 0.78125q-0.78125 0.765625 -0.859375 2.046875zm9.094467 5.875l0 -9.859375l1.5 0l0 1.5q0.578125 -1.046875 1.0625 -1.375q0.484375 -0.34375 1.078125 -0.34375q0.84375 0 1.71875 0.546875l-0.578125 1.546875q-0.609375 -0.359375 -1.234375 -0.359375q-0.546875 0 -0.984375 0.328125q-0.421875 0.328125 -0.609375 0.90625q-0.28125 0.890625 -0.28125 1.953125l0 5.15625l-1.671875 0z" fill-rule="nonzero"/>
    <path fill="#000000" fill-opacity="0.0" d="m182.08923 182.57169l88.09448 0l0 36.0l-88.09448 0z" fill-rule="nonzero"/>
    <path fill="#000000" d="m198.77673 206.27293q-0.9375 0.796875 -1.796875 1.125q-0.859375 0.3125 -1.84375 0.3125q-1.609375 0 -2.484375 -0.78125q-0.875 -0.796875 -0.875 -2.03125q0 -0.734375 0.328125 -1.328125q0.328125 -0.59375 0.859375 -0.953125q0.53125 -0.359375 1.203125 -0.546875q0.5 -0.140625 1.484375 -0.25q2.03125 -0.25 2.984375 -0.578125q0 -0.34375 0 -0.4375q0 -1.015625 -0.46875 -1.4375q-0.640625 -0.5625 -1.90625 -0.5625q-1.171875 0 -1.734375 0.40625q-0.5625 0.40625 -0.828125 1.46875l-1.640625 -0.234375q0.234375 -1.046875 0.734375 -1.6875q0.515625 -0.640625 1.46875 -0.984375q0.96875 -0.359375 2.25 -0.359375q1.265625 0 2.046875 0.296875q0.78125 0.296875 1.15625 0.75q0.375 0.453125 0.515625 1.140625q0.09375 0.421875 0.09375 1.53125l0 2.234375q0 2.328125 0.09375 2.953125q0.109375 0.609375 0.4375 1.171875l-1.75 0q-0.265625 -0.515625 -0.328125 -1.21875zm-0.140625 -3.71875q-0.90625 0.359375 -2.734375 0.625q-1.03125 0.140625 -1.453125 0.328125q-0.421875 0.1875 -0.65625 0.546875q-0.234375 0.359375 -0.234375 0.796875q0 0.671875 0.5 1.125q0.515625 0.4375 1.484375 0.4375q0.96875 0 1.71875 -0.421875q0.75 -0.4375 1.109375 -1.15625q0.265625 -0.578125 0.265625 -1.671875l0 -0.609375zm4.078842 8.71875l0 -13.640625l1.53125 0l0 1.28125q0.53125 -0.75 1.203125 -1.125q0.6875 -0.375 1.640625 -0.375q1.265625 0 2.234375 0.65625q0.96875 0.640625 1.453125 1.828125q0.5 1.1875 0.5 2.59375q0 1.515625 -0.546875 2.734375q-0.546875 1.203125 -1.578125 1.84375q-1.03125 0.640625 -2.171875 0.640625q-0.84375 0 -1.515625 -0.34375q-0.65625 -0.359375 -1.078125 -0.890625l0 4.796875l-1.671875 0zm1.515625 -8.65625q0 1.90625 0.765625 2.8125q0.78125 0.90625 1.875 0.90625q1.109375 0 1.890625 -0.9375q0.796875 -0.9375 0.796875 -2.921875q0 -1.875 -0.78125 -2.8125q-0.765625 -0.9375 -1.84375 -0.9375q-1.0625 0 -1.890625 1.0q-0.8125 1.0 -0.8125 2.890625zm8.875717 -6.8125l0 -1.90625l1.671875 0l0 1.90625l-1.671875 0zm0 11.6875l0 -9.859375l1.671875 0l0 9.859375l-1.671875 0zm3.4885712 -4.078125l0 -1.6875l5.125 0l0 1.6875l-5.125 0zm6.853302 4.078125l0 -9.859375l1.5 0l0 1.40625q1.09375 -1.625 3.140625 -1.625q0.890625 0 1.640625 0.328125q0.75 0.3125 1.109375 0.84375q0.375 0.515625 0.53125 1.21875q0.09375 0.46875 0.09375 1.625l0 6.0625l-1.671875 0l0 -6.0q0 -1.015625 -0.203125 -1.515625q-0.1875 -0.515625 -0.6875 -0.8125q-0.5 -0.296875 -1.171875 -0.296875q-1.0625 0 -1.84375 0.671875q-0.765625 0.671875 -0.765625 2.578125l0 5.375l-1.671875 0zm17.125717 -3.171875l1.71875 0.21875q-0.40625 1.5 -1.515625 2.34375q-1.09375 0.828125 -2.8125 0.828125q-2.15625 0 -3.421875 -1.328125q-1.265625 -1.328125 -1.265625 -3.734375q0 -2.484375 1.265625 -3.859375q1.28125 -1.375 3.328125 -1.375q1.984375 0 3.234375 1.34375q1.25 1.34375 1.25 3.796875q0 0.140625 -0.015625 0.4375l-7.34375 0q0.09375 1.625 0.921875 2.484375q0.828125 0.859375 2.0625 0.859375q0.90625 0 1.546875 -0.46875q0.65625 -0.484375 1.046875 -1.546875zm-5.484375 -2.703125l5.5 0q-0.109375 -1.234375 -0.625 -1.859375q-0.796875 -0.96875 -2.078125 -0.96875q-1.140625 0 -1.9375 0.78125q-0.78125 0.765625 -0.859375 2.046875zm8.000717 5.875l3.59375 -5.125l-3.328125 -4.734375l2.09375 0l1.515625 2.3125q0.421875 0.65625 0.671875 1.109375q0.421875 -0.609375 0.765625 -1.09375l1.65625 -2.328125l1.984375 0l-3.390625 4.640625l3.65625 5.21875l-2.046875 0l-2.03125 -3.0625l-0.53125 -0.828125l-2.59375 3.890625l-2.015625 0zm14.093765 -1.5l0.234375 1.484375q-0.703125 0.140625 -1.265625 0.140625q-0.90626526 0 -1.4062653 -0.28125q-0.5 -0.296875 -0.703125 -0.75q-0.203125 -0.46875 -0.203125 -1.984375l0 -5.65625l-1.234375 0l0 -1.3125l1.234375 0l0 -2.4375l1.65625 -1.0l0 3.4375l1.6875153 0l0 1.3125l-1.6875153 0l0 5.75q0 0.71875 0.078125 0.921875q0.09375 0.203125 0.296875 0.328125q0.20314026 0.125 0.57814026 0.125q0.265625 0 0.734375 -0.078125z" fill-rule="nonzero"/>
    <path fill="#000000" fill-opacity="0.0" d="m182.08923 131.5691l88.09448 0l0 36.0l-88.09448 0z" fill-rule="nonzero"/>
    <path fill="#000000" d="m192.33923 156.4891l0 -9.859375l1.5 0l0 1.40625q1.09375 -1.625 3.140625 -1.625q0.890625 0 1.640625 0.328125q0.75 0.3125 1.109375 0.84375q0.375 0.515625 0.53125 1.21875q0.09375 0.46875 0.09375 1.625l0 6.0625l-1.671875 0l0 -6.0q0 -1.015625 -0.203125 -1.515625q-0.1875 -0.515625 -0.6875 -0.8125q-0.5 -0.296875 -1.171875 -0.296875q-1.0625 0 -1.84375 0.671875q-0.765625 0.671875 -0.765625 2.578125l0 5.375l-1.671875 0zm17.125717 -3.171875l1.71875 0.21875q-0.40625 1.5 -1.515625 2.34375q-1.09375 0.828125 -2.8125 0.828125q-2.15625 0 -3.421875 -1.328125q-1.265625 -1.328125 -1.265625 -3.734375q0 -2.484375 1.265625 -3.859375q1.28125 -1.375 3.328125 -1.375q1.984375 0 3.234375 1.34375q1.25 1.34375 1.25 3.796875q0 0.140625 -0.015625 0.4375l-7.34375 0q0.09375 1.625 0.921875 2.484375q0.828125 0.859375 2.0625 0.859375q0.90625 0 1.546875 -0.46875q0.65625 -0.484375 1.046875 -1.546875zm-5.484375 -2.703125l5.5 0q-0.109375 -1.234375 -0.625 -1.859375q-0.796875 -0.96875 -2.078125 -0.96875q-1.140625 0 -1.9375 0.78125q-0.78125 0.765625 -0.859375 2.046875zm8.000717 5.875l3.59375 -5.125l-3.328125 -4.734375l2.09375 0l1.515625 2.3125q0.421875 0.65625 0.671875 1.109375q0.421875 -0.609375 0.765625 -1.09375l1.65625 -2.328125l1.984375 0l-3.390625 4.640625l3.65625 5.21875l-2.046875 0l-2.03125 -3.0625l-0.53125 -0.828125l-2.59375 3.890625l-2.015625 0zm14.09375 -1.5l0.234375 1.484375q-0.703125 0.140625 -1.265625 0.140625q-0.90625 0 -1.40625 -0.28125q-0.5 -0.296875 -0.703125 -0.75q-0.203125 -0.46875 -0.203125 -1.984375l0 -5.65625l-1.234375 0l0 -1.3125l1.234375 0l0 -2.4375l1.65625 -1.0l0 3.4375l1.6875 0l0 1.3125l-1.6875 0l0 5.75q0 0.71875 0.078125 0.921875q0.09375 0.203125 0.296875 0.328125q0.203125 0.125 0.578125 0.125q0.265625 0 0.734375 -0.078125z" fill-rule="nonzero"/>
    <path fill="#cfe2f3" d="m39.958004 197.73228l0.8523636 0l0 13.637787l-0.8523636 0zm1.7047272 0l1.7047234 0l0 13.637787l-1.7047234 0zm2.5570831 0l111.17125 0l0 -6.8188934l13.637802 13.637787l-13.637802 13.637802l0 -6.8189087l-111.17125 0z" fill-rule="nonzero"/>
    <path stroke="#000000" stroke-width="1.0" stroke-linejoin="round" stroke-linecap="butt" d="m39.958004 197.73228l0.8523636 0l0 13.637787l-0.8523636 0zm1.7047272 0l1.7047234 0l0 13.637787l-1.7047234 0zm2.5570831 0l111.17125 0l0 -6.8188934l13.637802 13.637787l-13.637802 13.637802l0 -6.8189087l-111.17125 0z" fill-rule="nonzero"/>
    <path fill="#000000" d="m58.469814 208.52306q-0.625 0.53125 -1.21875 0.765625q-0.578125 0.21875 -1.25 0.21875q-1.125 0 -1.71875 -0.546875q-0.59375 -0.546875 -0.59375 -1.390625q0 -0.484375 0.21875 -0.890625q0.234375 -0.421875 0.59375 -0.671875q0.375 -0.25 0.828125 -0.375q0.328125 -0.078125 1.015625 -0.171875q1.375 -0.15625 2.03125 -0.390625q0.015625 -0.234375 0.015625 -0.296875q0 -0.703125 -0.328125 -0.984375q-0.4375 -0.390625 -1.296875 -0.390625q-0.8125 0 -1.203125 0.28125q-0.375 0.28125 -0.5625 1.0l-1.109375 -0.140625q0.140625 -0.71875 0.484375 -1.15625q0.359375 -0.453125 1.015625 -0.6875q0.671875 -0.234375 1.53125 -0.234375q0.875 0 1.40625 0.203125q0.546875 0.203125 0.796875 0.515625q0.25 0.296875 0.359375 0.765625q0.046875 0.296875 0.046875 1.0625l0 1.515625q0 1.59375 0.078125 2.015625q0.078125 0.421875 0.28125 0.8125l-1.1875 0q-0.171875 -0.359375 -0.234375 -0.828125zm-0.09375 -2.5625q-0.625 0.265625 -1.859375 0.4375q-0.703125 0.109375 -1.0 0.234375q-0.296875 0.125 -0.453125 0.375q-0.15625 0.234375 -0.15625 0.53125q0 0.453125 0.34375 0.765625q0.34375 0.296875 1.015625 0.296875q0.65625 0 1.171875 -0.28125q0.515625 -0.296875 0.765625 -0.796875q0.171875 -0.375 0.171875 -1.140625l0 -0.421875zm3.1156006 5.96875l0 -9.3125l1.03125 0l0 0.875q0.375 -0.515625 0.828125 -0.765625q0.46875 -0.265625 1.1406288 -0.265625q0.859375 0 1.515625 0.453125q0.65625 0.4375 0.984375 1.25q0.34375 0.796875 0.34375 1.765625q0 1.03125 -0.375 1.859375q-0.359375 0.828125 -1.078125 1.28125q-0.703125 0.4375 -1.484375 0.4375q-0.5625038 0 -1.0156288 -0.234375q-0.453125 -0.25 -0.75 -0.625l0 3.28125l-1.140625 0zm1.03125 -5.90625q0 1.296875 0.53125 1.921875q0.53125 0.625 1.2656288 0.625q0.765625 0 1.3125 -0.640625q0.546875 -0.65625 0.546875 -2.0q0 -1.296875 -0.53125 -1.9375q-0.53125 -0.640625 -1.265625 -0.640625q-0.7343788 0 -1.2968788 0.6875q-0.5625 0.671875 -0.5625 1.984375zm6.3812294 -4.65625l0 -1.328125l1.140625 0l0 1.328125l-1.140625 0zm0 7.984375l0 -6.734375l1.140625 0l0 6.734375l-1.140625 0zm6.6640778 2.578125l0 -9.3125l1.03125 0l0 0.875q0.375 -0.515625 0.828125 -0.765625q0.46875 -0.265625 1.140625 -0.265625q0.859375 0 1.515625 0.453125q0.65625 0.4375 0.984375 1.25q0.34375 0.796875 0.34375 1.765625q0 1.03125 -0.375 1.859375q-0.359375 0.828125 -1.078125 1.28125q-0.703125 0.4375 -1.484375 0.4375q-0.5625 0 -1.015625 -0.234375q-0.453125 -0.25 -0.75 -0.625l0 3.28125l-1.140625 0zm1.03125 -5.90625q0 1.296875 0.53125 1.921875q0.53125 0.625 1.265625 0.625q0.765625 0 1.3125 -0.640625q0.546875 -0.65625 0.546875 -2.0q0 -1.296875 -0.53125 -1.9375q-0.53125 -0.640625 -1.265625 -0.640625q-0.734375 0 -1.296875 0.6875q-0.5625 0.671875 -0.5625 1.984375zm10.771851 2.5q-0.625 0.53125 -1.21875 0.765625q-0.578125 0.21875 -1.25 0.21875q-1.125 0 -1.71875 -0.546875q-0.59375 -0.546875 -0.59375 -1.390625q0 -0.484375 0.21875 -0.890625q0.234375 -0.421875 0.59375 -0.671875q0.375 -0.25 0.828125 -0.375q0.328125 -0.078125 1.015625 -0.171875q1.375 -0.15625 2.03125 -0.390625q0.015625 -0.234375 0.015625 -0.296875q0 -0.703125 -0.328125 -0.984375q-0.4375 -0.390625 -1.296875 -0.390625q-0.8125 0 -1.203125 0.28125q-0.375 0.28125 -0.5625 1.0l-1.109375 -0.140625q0.140625 -0.71875 0.484375 -1.15625q0.359375 -0.453125 1.015625 -0.6875q0.671875 -0.234375 1.53125 -0.234375q0.875 0 1.40625 0.203125q0.546875 0.203125 0.796875 0.515625q0.25 0.296875 0.359375 0.765625q0.046875 0.296875 0.046875 1.0625l0 1.515625q0 1.59375 0.078125 2.015625q0.078125 0.421875 0.28125 0.8125l-1.1875 0q-0.171875 -0.359375 -0.234375 -0.828125zm-0.09375 -2.5625q-0.625 0.265625 -1.859375 0.4375q-0.703125 0.109375 -1.0 0.234375q-0.296875 0.125 -0.453125 0.375q-0.15625 0.234375 -0.15625 0.53125q0 0.453125 0.34375 0.765625q0.34375 0.296875 1.015625 0.296875q0.65625 0 1.171875 -0.28125q0.515625 -0.296875 0.765625 -0.796875q0.171875 -0.375 0.171875 -1.140625l0 -0.421875zm5.6156006 2.375l0.15625 1.0q-0.484375 0.109375 -0.859375 0.109375q-0.625 0 -0.96875 -0.203125q-0.34375 -0.203125 -0.484375 -0.515625q-0.140625 -0.328125 -0.140625 -1.34375l0 -3.890625l-0.828125 0l0 -0.875l0.828125 0l0 -1.671875l1.140625 -0.6875l0 2.359375l1.15625 0l0 0.875l-1.15625 0l0 3.953125q0 0.484375 0.0625 0.625q0.0625 0.140625 0.1875 0.21875q0.140625 0.078125 0.390625 0.078125q0.203125 0 0.515625 -0.03125zm5.5936127 -1.453125l1.125 0.140625q-0.171875 1.171875 -0.9375 1.828125q-0.765625 0.65625 -1.859375 0.65625q-1.390625 0 -2.234375 -0.90625q-0.828125 -0.90625 -0.828125 -2.59375q0 -1.09375 0.359375 -1.90625q0.359375 -0.828125 1.09375 -1.234375q0.734375 -0.40625 1.609375 -0.40625q1.09375 0 1.796875 0.5625q0.703125 0.546875 0.890625 1.5625l-1.109375 0.171875q-0.15625 -0.671875 -0.5625 -1.015625q-0.390625 -0.34375 -0.96875 -0.34375q-0.859375 0 -1.40625 0.625q-0.53125 0.609375 -0.53125 1.953125q0 1.359375 0.515625 1.984375q0.515625 0.609375 1.359375 0.609375q0.671875 0 1.125 -0.40625q0.453125 -0.421875 0.5625 -1.28125zm2.2734375 2.46875l0 -9.3125l1.140625 0l0 3.34375q0.796875 -0.921875 2.015625 -0.921875q0.75 0 1.296875 0.296875q0.5625 0.296875 0.796875 0.8125q0.234375 0.515625 0.234375 1.515625l0 4.265625l-1.140625 0l0 -4.265625q0 -0.859375 -0.375 -1.25q-0.359375 -0.390625 -1.046875 -0.390625q-0.5 0 -0.953125 0.265625q-0.453125 0.25 -0.640625 0.703125q-0.1875 0.453125 -0.1875 1.25l0 3.6875l-1.140625 0z" fill-rule="nonzero"/>
    <path fill="#cfe2f3" d="m9.926521 88.666664l0.85236263 0l0 13.6377945l-0.85236263 0zm1.7047243 0l1.7047243 0l0 13.6377945l-1.7047243 0zm2.557087 0l145.37598 0l0 -6.8188934l13.637802 13.6377945l-13.637802 13.6377945l0 -6.818901l-145.37598 0z" fill-rule="nonzero"/>
    <path stroke="#000000" stroke-width="1.0" stroke-linejoin="round" stroke-linecap="butt" d="m9.926521 88.666664l0.85236263 0l0 13.6377945l-0.85236263 0zm1.7047243 0l1.7047243 0l0 13.6377945l-1.7047243 0zm2.557087 0l145.37598 0l0 -6.8188934l13.637802 13.6377945l-13.637802 13.6377945l0 -6.818901l-145.37598 0z" fill-rule="nonzero"/>
    <path fill="#000000" d="m24.047707 92.301186l0 -1.328125l1.140625 0l0 1.328125l-1.140625 0zm0 7.984375l0 -6.734375l1.140625 0l0 6.734375l-1.140625 0zm2.96109 0l0 -6.734375l1.015625 0l0 0.9375q0.328125 -0.5 0.84375 -0.796875q0.53125 -0.296875 1.203125 -0.296875q0.75 0 1.21875 0.3125q0.484375 0.3125 0.6875 0.859375q0.796875 -1.171875 2.078125 -1.171875q1.0 0 1.53125 0.5625q0.546875 0.546875 0.546875 1.703125l0 4.625l-1.125 0l0 -4.25q0 -0.6875 -0.109375 -0.984375q-0.109375 -0.296875 -0.40625 -0.484375q-0.296875 -0.1875 -0.6875 -0.1875q-0.71875 0 -1.1875 0.484375q-0.46875 0.46875 -0.46875 1.5l0 3.921875l-1.140625 0l0 -4.375q0 -0.765625 -0.28125 -1.140625q-0.28125 -0.390625 -0.90625 -0.390625q-0.484375 0 -0.890625 0.265625q-0.40625 0.25 -0.59375 0.734375q-0.1875 0.484375 -0.1875 1.40625l0 3.5l-1.140625 0zm11.102432 2.578125l0 -9.3125l1.03125 0l0 0.875q0.375 -0.515625 0.828125 -0.765625q0.46875 -0.265625 1.140625 -0.265625q0.859375 0 1.515625 0.453125q0.65625 0.4375 0.984375 1.25q0.34375 0.796875 0.34375 1.765625q0 1.03125 -0.375 1.859375q-0.359375 0.828125 -1.078125 1.28125q-0.703125 0.4375 -1.484375 0.4375q-0.5625 0 -1.015625 -0.234375q-0.453125 -0.25 -0.75 -0.625l0 3.28125l-1.140625 0zm1.03125 -5.90625q0 1.296875 0.53125 1.921875q0.53125 0.625 1.265625 0.625q0.765625 0 1.3125 -0.640625q0.546875 -0.65625 0.546875 -2.0q0 -1.296875 -0.53125 -1.9375q-0.53125 -0.640625 -1.265625 -0.640625q-0.734375 0 -1.296875 0.6875q-0.5625 0.671875 -0.5625 1.984375zm6.3499756 3.328125l0 -9.3125l1.140625 0l0 9.3125l-1.140625 0zm7.601715 -2.171875l1.1875 0.140625q-0.28125 1.046875 -1.046875 1.625q-0.75 0.5625 -1.921875 0.5625q-1.484375 0 -2.359375 -0.90625q-0.859375 -0.921875 -0.859375 -2.5625q0 -1.703125 0.875 -2.640625q0.890625 -0.9375 2.28125 -0.9375q1.359375 0 2.203125 0.921875q0.859375 0.921875 0.859375 2.578125q0 0.109375 0 0.3125l-5.03125 0q0.0625 1.109375 0.625 1.703125q0.5625 0.59375 1.40625 0.59375q0.640625 0 1.078125 -0.328125q0.453125 -0.34375 0.703125 -1.0625zm-3.75 -1.84375l3.765625 0q-0.078125 -0.859375 -0.4375 -1.28125q-0.546875 -0.65625 -1.40625 -0.65625q-0.796875 0 -1.328125 0.53125q-0.53125 0.515625 -0.59375 1.40625zm6.5531006 4.015625l0 -6.734375l1.015625 0l0 0.9375q0.328125 -0.5 0.84375 -0.796875q0.53125 -0.296875 1.203125 -0.296875q0.75 0 1.21875 0.3125q0.484375 0.3125 0.6875 0.859375q0.796875 -1.171875 2.078125 -1.171875q1.0 0 1.53125 0.5625q0.546875 0.546875 0.546875 1.703125l0 4.625l-1.125 0l0 -4.25q0 -0.6875 -0.109375 -0.984375q-0.109375 -0.296875 -0.40625 -0.484375q-0.296875 -0.1875 -0.6875 -0.1875q-0.71875 0 -1.1875 0.484375q-0.46875 0.46875 -0.46875 1.5l0 3.921875l-1.140625 0l0 -4.375q0 -0.765625 -0.28125 -1.140625q-0.28125 -0.390625 -0.90625 -0.390625q-0.484375 0 -0.890625 0.265625q-0.40625 0.25 -0.59375 0.734375q-0.1875 0.484375 -0.1875 1.40625l0 3.5l-1.140625 0zm15.711807 -2.171875l1.1875 0.140625q-0.28125 1.046875 -1.046875 1.625q-0.75 0.5625 -1.921875 0.5625q-1.484375 0 -2.359375 -0.90625q-0.859375 -0.921875 -0.859375 -2.5625q0 -1.703125 0.875 -2.640625q0.890625 -0.9375 2.28125 -0.9375q1.359375 0 2.203125 0.921875q0.859375 0.921875 0.859375 2.578125q0 0.109375 0 0.3125l-5.03125 0q0.0625 1.109375 0.625 1.703125q0.5625 0.59375 1.40625 0.59375q0.640625 0 1.078125 -0.328125q0.453125 -0.34375 0.703125 -1.0625zm-3.75 -1.84375l3.765625 0q-0.078125 -0.859375 -0.4375 -1.28125q-0.546875 -0.65625 -1.40625 -0.65625q-0.796875 0 -1.328125 0.53125q-0.53125 0.515625 -0.59375 1.40625zm6.5531006 4.015625l0 -6.734375l1.03125 0l0 0.953125q0.734375 -1.109375 2.140625 -1.109375q0.609375 0 1.109375 0.21875q0.515625 0.21875 0.765625 0.578125q0.265625 0.34375 0.359375 0.84375q0.0625 0.3125 0.0625 1.109375l0 4.140625l-1.140625 0l0 -4.09375q0 -0.703125 -0.140625 -1.046875q-0.125 -0.34375 -0.46875 -0.546875q-0.328125 -0.21875 -0.78125 -0.21875q-0.734375 0 -1.265625 0.46875q-0.53125 0.453125 -0.53125 1.75l0 3.6875l-1.140625 0zm9.912476 -1.015625l0.15625 1.0q-0.484375 0.109375 -0.859375 0.109375q-0.625 0 -0.96875 -0.203125q-0.34375 -0.203125 -0.484375 -0.515625q-0.140625 -0.328125 -0.140625 -1.34375l0 -3.890625l-0.828125 0l0 -0.875l0.828125 0l0 -1.671875l1.140625 -0.6875l0 2.359375l1.15625 0l0 0.875l-1.15625 0l0 3.953125q0 0.484375 0.0625 0.625q0.0625 0.140625 0.1875 0.21875q0.140625 0.078125 0.390625 0.078125q0.203125 0 0.515625 -0.03125zm5.5936127 0.1875q-0.625 0.53125 -1.21875 0.765625q-0.578125 0.21875 -1.25 0.21875q-1.125 0 -1.71875 -0.546875q-0.59375 -0.546875 -0.59375 -1.390625q0 -0.484375 0.21875 -0.890625q0.234375 -0.421875 0.59375 -0.671875q0.375 -0.25 0.828125 -0.375q0.328125 -0.078125 1.015625 -0.171875q1.375 -0.15625 2.03125 -0.390625q0.015625 -0.234375 0.015625 -0.296875q0 -0.703125 -0.328125 -0.984375q-0.4375 -0.390625 -1.296875 -0.390625q-0.8125 0 -1.203125 0.28125q-0.375 0.28125 -0.5625 1.0l-1.109375 -0.140625q0.140625 -0.71875 0.484375 -1.15625q0.359375 -0.453125 1.015625 -0.6875q0.671875 -0.234375 1.53125 -0.234375q0.875 0 1.40625 0.203125q0.546875 0.203125 0.796875 0.515625q0.25 0.296875 0.359375 0.765625q0.046875 0.296875 0.046875 1.0625l0 1.515625q0 1.59375 0.078125 2.015625q0.078125 0.421875 0.28125 0.8125l-1.1875 0q-0.171875 -0.359375 -0.234375 -0.828125zm-0.09375 -2.5625q-0.625 0.265625 -1.859375 0.4375q-0.703125 0.109375 -1.0 0.234375q-0.296875 0.125 -0.453125 0.375q-0.15625 0.234375 -0.15625 0.53125q0 0.453125 0.34375 0.765625q0.34375 0.296875 1.015625 0.296875q0.65625 0 1.171875 -0.28125q0.515625 -0.296875 0.765625 -0.796875q0.171875 -0.375 0.171875 -1.140625l0 -0.421875zm5.6156006 2.375l0.15625 1.0q-0.484375 0.109375 -0.859375 0.109375q-0.625 0 -0.96875 -0.203125q-0.34375 -0.203125 -0.484375 -0.515625q-0.140625 -0.328125 -0.140625 -1.34375l0 -3.890625l-0.828125 0l0 -0.875l0.828125 0l0 -1.671875l1.140625 -0.6875l0 2.359375l1.15625 0l0 0.875l-1.15625 0l0 3.953125q0 0.484375 0.0625 0.625q0.0625 0.140625 0.1875 0.21875q0.140625 0.078125 0.390625 0.078125q0.203125 0 0.515625 -0.03125zm1.2029877 -6.96875l0 -1.328125l1.140625 0l0 1.328125l-1.140625 0zm0 7.984375l0 -6.734375l1.140625 0l0 6.734375l-1.140625 0zm2.539215 -3.375q0 -1.875 1.03125 -2.765625q0.875 -0.75 2.125 -0.75q1.390625 0 2.265625 0.90625q0.890625 0.90625 0.890625 2.515625q0 1.296875 -0.390625 2.046875q-0.390625 0.75 -1.140625 1.171875q-0.75 0.40625 -1.625 0.40625q-1.421875 0 -2.296875 -0.90625q-0.859375 -0.90625 -0.859375 -2.625zm1.171875 0q0 1.296875 0.5625 1.953125q0.5625 0.640625 1.421875 0.640625q0.84375 0 1.40625 -0.640625q0.578125 -0.65625 0.578125 -1.984375q0 -1.25 -0.578125 -1.890625q-0.5625 -0.65625 -1.40625 -0.65625q-0.859375 0 -1.421875 0.640625q-0.5625 0.640625 -0.5625 1.9375zm6.6624756 3.375l0 -6.734375l1.03125 0l0 0.953125q0.734375 -1.109375 2.140625 -1.109375q0.609375 0 1.109375 0.21875q0.515625 0.21875 0.765625 0.578125q0.265625 0.34375 0.359375 0.84375q0.0625 0.3125 0.0625 1.109375l0 4.140625l-1.140625 0l0 -4.09375q0 -0.703125 -0.140625 -1.046875q-0.125 -0.34375 -0.46875 -0.546875q-0.328125 -0.21875 -0.78125 -0.21875q-0.734375 0 -1.265625 0.46875q-0.53125 0.453125 -0.53125 1.75l0 3.6875l-1.140625 0zm11.115463 2.578125l0 -9.3125l1.03125 0l0 0.875q0.375 -0.515625 0.828125 -0.765625q0.46875 -0.265625 1.140625 -0.265625q0.859375 0 1.515625 0.453125q0.65625 0.4375 0.984375 1.25q0.34375 0.796875 0.34375 1.765625q0 1.03125 -0.375 1.859375q-0.359375 0.828125 -1.078125 1.28125q-0.703125 0.4375 -1.484375 0.4375q-0.5625 0 -1.015625 -0.234375q-0.453125 -0.25 -0.75 -0.625l0 3.28125l-1.140625 0zm1.03125 -5.90625q0 1.296875 0.53125 1.921875q0.53125 0.625 1.265625 0.625q0.765625 0 1.3125 -0.640625q0.546875 -0.65625 0.546875 -2.0q0 -1.296875 -0.53125 -1.9375q-0.53125 -0.640625 -1.265625 -0.640625q-0.734375 0 -1.296875 0.6875q-0.5625 0.671875 -0.5625 1.984375zm10.771858 2.5q-0.625 0.53125 -1.21875 0.765625q-0.578125 0.21875 -1.2500076 0.21875q-1.125 0 -1.71875 -0.546875q-0.59375 -0.546875 -0.59375 -1.390625q0 -0.484375 0.21875 -0.890625q0.234375 -0.421875 0.59375 -0.671875q0.375 -0.25 0.828125 -0.375q0.328125 -0.078125 1.015625 -0.171875q1.3750076 -0.15625 2.0312576 -0.390625q0.015625 -0.234375 0.015625 -0.296875q0 -0.703125 -0.328125 -0.984375q-0.4375 -0.390625 -1.296875 -0.390625q-0.8125076 0 -1.2031326 0.28125q-0.375 0.28125 -0.5625 1.0l-1.109375 -0.140625q0.140625 -0.71875 0.484375 -1.15625q0.359375 -0.453125 1.015625 -0.6875q0.671875 -0.234375 1.5312576 -0.234375q0.875 0 1.40625 0.203125q0.546875 0.203125 0.796875 0.515625q0.25 0.296875 0.359375 0.765625q0.046875 0.296875 0.046875 1.0625l0 1.515625q0 1.59375 0.078125 2.015625q0.078125 0.421875 0.28125 0.8125l-1.1875 0q-0.171875 -0.359375 -0.234375 -0.828125zm-0.09375 -2.5625q-0.625 0.265625 -1.8593826 0.4375q-0.703125 0.109375 -1.0 0.234375q-0.296875 0.125 -0.453125 0.375q-0.15625 0.234375 -0.15625 0.53125q0 0.453125 0.34375 0.765625q0.34375 0.296875 1.015625 0.296875q0.6562576 0 1.1718826 -0.28125q0.515625 -0.296875 0.765625 -0.796875q0.171875 -0.375 0.171875 -1.140625l0 -0.421875zm5.6156006 2.375l0.15625 1.0q-0.484375 0.109375 -0.859375 0.109375q-0.625 0 -0.96875 -0.203125q-0.34375 -0.203125 -0.484375 -0.515625q-0.140625 -0.328125 -0.140625 -1.34375l0 -3.890625l-0.828125 0l0 -0.875l0.828125 0l0 -1.671875l1.140625 -0.6875l0 2.359375l1.15625 0l0 0.875l-1.15625 0l0 3.953125q0 0.484375 0.0625 0.625q0.0625 0.140625 0.1875 0.21875q0.140625 0.078125 0.390625 0.078125q0.203125 0 0.515625 -0.03125zm5.5936127 -1.453125l1.125 0.140625q-0.171875 1.171875 -0.9375 1.828125q-0.765625 0.65625 -1.859375 0.65625q-1.390625 0 -2.234375 -0.90625q-0.828125 -0.90625 -0.828125 -2.59375q0 -1.09375 0.359375 -1.90625q0.359375 -0.828125 1.09375 -1.234375q0.734375 -0.40625 1.609375 -0.40625q1.09375 0 1.796875 0.5625q0.703125 0.546875 0.890625 1.5625l-1.109375 0.171875q-0.15625 -0.671875 -0.5625 -1.015625q-0.390625 -0.34375 -0.96875 -0.34375q-0.859375 0 -1.40625 0.625q-0.53125 0.609375 -0.53125 1.953125q0 1.359375 0.515625 1.984375q0.515625 0.609375 1.359375 0.609375q0.671875 0 1.125 -0.40625q0.453125 -0.421875 0.5625 -1.28125zm2.2734375 2.46875l0 -9.3125l1.140625 0l0 3.34375q0.796875 -0.921875 2.015625 -0.921875q0.75 0 1.296875 0.296875q0.5625 0.296875 0.796875 0.8125q0.234375 0.515625 0.234375 1.515625l0 4.265625l-1.140625 0l0 -4.265625q0 -0.859375 -0.375 -1.25q-0.359375 -0.390625 -1.046875 -0.390625q-0.5 0 -0.953125 0.265625q-0.453125 0.25 -0.640625 0.703125q-0.1875 0.453125 -0.1875 1.25l0 3.6875l-1.140625 0z" fill-rule="nonzero"/>
    <path fill="#000000" fill-opacity="0.0" d="m364.0539 196.9122l99.1181 -40.503937" fill-rule="nonzero"/>
    <path stroke="#000000" stroke-width="2.0" stroke-linejoin="round" stroke-linecap="butt" stroke-dasharray="2.0,6.0" d="m364.0539 196.9122l88.009796 -35.964615" fill-rule="evenodd"/>
    <path fill="#000000" stroke="#000000" stroke-width="2.0" stroke-linecap="butt" d="m453.31332 164.00558l7.15213 -6.4913177l-9.651398 0.3753357z" fill-rule="evenodd"/>
    <path fill="#000000" fill-opacity="0.0" d="m478.39642 141.14317l32.503937 -44.0" fill-rule="nonzero"/>
    <path stroke="#000000" stroke-width="2.0" stroke-linejoin="round" stroke-linecap="butt" stroke-dasharray="2.0,6.0" d="m478.3964 141.14317l25.37378 -34.34803" fill-rule="evenodd"/>
    <path fill="#000000" stroke="#000000" stroke-width="2.0" stroke-linecap="butt" d="m506.42725 108.758l2.7358398 -9.26313l-8.049988 5.3374176z" fill-rule="evenodd"/>
    <path fill="#ffffff" d="m258.55118 30.19685l0 0c0 -3.3137074 2.6863098 -6.0 6.0 -6.0l10.27298 0l0 0l24.409424 0l50.955383 0c1.5913086 0 3.1174316 0.6321411 4.2426453 1.7573605c1.1252136 1.1252174 1.7573547 2.6513405 1.7573547 4.2426395l0 15.0l0 0l0 9.0l0 0c0 3.3137093 -2.6862793 6.0 -6.0 6.0l-50.955383 0l-12.953278 21.576237l-11.456146 -21.576237l-10.27298 0c-3.3136902 0 -6.0 -2.6862907 -6.0 -6.0l0 0l0 -9.0l0 0z" fill-rule="nonzero"/>
    <path stroke="#000000" stroke-width="1.0" stroke-linejoin="round" stroke-linecap="butt" d="m258.55118 30.19685l0 0c0 -3.3137074 2.6863098 -6.0 6.0 -6.0l10.27298 0l0 0l24.409424 0l50.955383 0c1.5913086 0 3.1174316 0.6321411 4.2426453 1.7573605c1.1252136 1.1252174 1.7573547 2.6513405 1.7573547 4.2426395l0 15.0l0 0l0 9.0l0 0c0 3.3137093 -2.6862793 6.0 -6.0 6.0l-50.955383 0l-12.953278 21.576237l-11.456146 -21.576237l-10.27298 0c-3.3136902 0 -6.0 -2.6862907 -6.0 -6.0l0 0l0 -9.0l0 0z" fill-rule="nonzero"/>
    <path fill="#000000" d="m273.2929 49.116848l-3.75 -9.859375l1.765625 0l2.125 5.90625q0.34375 0.953125 0.625 1.984375q0.21875 -0.78125 0.625 -1.875l2.1875 -6.015625l1.71875 0l-3.734375 9.859375l-1.5625 0zm12.421875 0l-1.671875 0l0 -10.640625q-0.59375 0.578125 -1.578125 1.15625q-0.984375 0.5625 -1.765625 0.859375l0 -1.625q1.40625 -0.65625 2.453125 -1.59375q1.046875 -0.9375 1.484375 -1.8125l1.078125 0l0 13.65625zm5.016327 0l0 -1.90625l1.90625 0l0 1.90625l-1.90625 0zm4.245819 -6.703125q0 -2.421875 0.5 -3.890625q0.5 -1.46875 1.46875 -2.265625q0.984375 -0.796875 2.46875 -0.796875q1.09375 0 1.921875 0.4375q0.828125 0.4375 1.359375 1.28125q0.546875 0.828125 0.84375 2.015625q0.3125 1.1875 0.3125 3.21875q0 2.390625 -0.5 3.859375q-0.484375 1.46875 -1.46875 2.28125q-0.96875 0.796875 -2.46875 0.796875q-1.96875 0 -3.078125 -1.40625q-1.359375 -1.703125 -1.359375 -5.53125zm1.71875 0q0 3.34375 0.78125 4.453125q0.796875 1.109375 1.9375 1.109375q1.15625 0 1.9375 -1.109375q0.78125 -1.125 0.78125 -4.453125q0 -3.359375 -0.78125 -4.46875q-0.78125 -1.109375 -1.953125 -1.109375q-1.15625 0 -1.828125 0.984375q-0.875 1.234375 -0.875 4.59375zm9.594452 6.703125l0 -1.90625l1.90625 0l0 1.90625l-1.90625 0zm4.245819 -6.703125q0 -2.421875 0.5 -3.890625q0.5 -1.46875 1.46875 -2.265625q0.984375 -0.796875 2.46875 -0.796875q1.09375 0 1.921875 0.4375q0.828125 0.4375 1.359375 1.28125q0.546875 0.828125 0.84375 2.015625q0.3125 1.1875 0.3125 3.21875q0 2.390625 -0.5 3.859375q-0.484375 1.46875 -1.46875 2.28125q-0.96875 0.796875 -2.46875 0.796875q-1.96875 0 -3.078125 -1.40625q-1.359375 -1.703125 -1.359375 -5.53125zm1.71875 0q0 3.34375 0.78125 4.453125q0.796875 1.109375 1.9375 1.109375q1.15625 0 1.9375 -1.109375q0.78125 -1.125 0.78125 -4.453125q0 -3.359375 -0.78125 -4.46875q-0.78125 -1.109375 -1.953125 -1.109375q-1.15625 0 -1.828125 0.984375q-0.875 1.234375 -0.875 4.59375zm9.594452 6.703125l0 -1.90625l1.90625 0l0 1.90625l-1.90625 0zm4.245819 -6.703125q0 -2.421875 0.5 -3.890625q0.5 -1.46875 1.46875 -2.265625q0.984375 -0.796875 2.46875 -0.796875q1.09375 0 1.921875 0.4375q0.828125 0.4375 1.359375 1.28125q0.546875 0.828125 0.84375 2.015625q0.3125 1.1875 0.3125 3.21875q0 2.390625 -0.5 3.859375q-0.484375 1.46875 -1.46875 2.28125q-0.96875 0.796875 -2.46875 0.796875q-1.96875 0 -3.078125 -1.40625q-1.359375 -1.703125 -1.359375 -5.53125zm1.71875 0q0 3.34375 0.78125 4.453125q0.796875 1.109375 1.9375 1.109375q1.15625 0 1.9375 -1.109375q0.78125 -1.125 0.78125 -4.453125q0 -3.359375 -0.78125 -4.46875q-0.78125 -1.109375 -1.953125 -1.109375q-1.15625 0 -1.828125 0.984375q-0.875 1.234375 -0.875 4.59375z" fill-rule="nonzero"/>
    <path fill="#ffffff" d="m374.61154 30.19685l0 0c0 -3.3137074 2.6863098 -6.0 6.0 -6.0l10.27298 0l0 0l24.409454 0l50.955383 0c1.5912781 0 3.1174011 0.6321411 4.2426147 1.7573605c1.1252441 1.1252174 1.7573853 2.6513405 1.7573853 4.2426395l0 15.0l0 0l0 9.0l0 0c0 3.3137093 -2.6863098 6.0 -6.0 6.0l-50.955383 0l-12.953308 21.576237l-11.456146 -21.576237l-10.27298 0c-3.3136902 0 -6.0 -2.6862907 -6.0 -6.0l0 0l0 -9.0l0 0z" fill-rule="nonzero"/>
    <path stroke="#000000" stroke-width="1.0" stroke-linejoin="round" stroke-linecap="butt" d="m374.61154 30.19685l0 0c0 -3.3137074 2.6863098 -6.0 6.0 -6.0l10.27298 0l0 0l24.409454 0l50.955383 0c1.5912781 0 3.1174011 0.6321411 4.2426147 1.7573605c1.1252441 1.1252174 1.7573853 2.6513405 1.7573853 4.2426395l0 15.0l0 0l0 9.0l0 0c0 3.3137093 -2.6863098 6.0 -6.0 6.0l-50.955383 0l-12.953308 21.576237l-11.456146 -21.576237l-10.27298 0c-3.3136902 0 -6.0 -2.6862907 -6.0 -6.0l0 0l0 -9.0l0 0z" fill-rule="nonzero"/>
    <path fill="#000000" d="m389.35327 49.116848l-3.75 -9.859375l1.765625 0l2.125 5.90625q0.34375 0.953125 0.625 1.984375q0.21875 -0.78125 0.625 -1.875l2.1875 -6.015625l1.71875 0l-3.734375 9.859375l-1.5625 0zm12.421875 0l-1.671875 0l0 -10.640625q-0.59375 0.578125 -1.578125 1.15625q-0.984375 0.5625 -1.765625 0.859375l0 -1.625q1.40625 -0.65625 2.453125 -1.59375q1.046875 -0.9375 1.484375 -1.8125l1.078125 0l0 13.65625zm5.016327 0l0 -1.90625l1.90625 0l0 1.90625l-1.90625 0zm4.245819 -6.703125q0 -2.421875 0.5 -3.890625q0.5 -1.46875 1.46875 -2.265625q0.984375 -0.796875 2.46875 -0.796875q1.09375 0 1.921875 0.4375q0.828125 0.4375 1.359375 1.28125q0.546875 0.828125 0.84375 2.015625q0.3125 1.1875 0.3125 3.21875q0 2.390625 -0.5 3.859375q-0.484375 1.46875 -1.46875 2.28125q-0.96875 0.796875 -2.46875 0.796875q-1.96875 0 -3.078125 -1.40625q-1.359375 -1.703125 -1.359375 -5.53125zm1.71875 0q0 3.34375 0.78125 4.453125q0.796875 1.109375 1.9375 1.109375q1.15625 0 1.9375 -1.109375q0.78125 -1.125 0.78125 -4.453125q0 -3.359375 -0.78125 -4.46875q-0.78125 -1.109375 -1.953125 -1.109375q-1.15625 0 -1.828125 0.984375q-0.875 1.234375 -0.875 4.59375zm9.594452 6.703125l0 -1.90625l1.90625 0l0 1.90625l-1.90625 0zm10.542694 0l-1.671875 0l0 -10.640625q-0.59375 0.578125 -1.578125 1.15625q-0.984375 0.5625 -1.765625 0.859375l0 -1.625q1.40625 -0.65625 2.453125 -1.59375q1.046875 -0.9375 1.484375 -1.8125l1.078125 0l0 13.65625zm5.016327 0l0 -1.90625l1.90625 0l0 1.90625l-1.90625 0zm4.245819 -6.703125q0 -2.421875 0.5 -3.890625q0.5 -1.46875 1.46875 -2.265625q0.984375 -0.796875 2.46875 -0.796875q1.09375 0 1.921875 0.4375q0.828125 0.4375 1.359375 1.28125q0.546875 0.828125 0.84375 2.015625q0.3125 1.1875 0.3125 3.21875q0 2.390625 -0.5 3.859375q-0.484375 1.46875 -1.46875 2.28125q-0.96875 0.796875 -2.46875 0.796875q-1.96875 0 -3.078125 -1.40625q-1.359375 -1.703125 -1.359375 -5.53125zm1.71875 0q0 3.34375 0.78125 4.453125q0.796875 1.109375 1.9375 1.109375q1.15625 0 1.9375 -1.109375q0.78125 -1.125 0.78125 -4.453125q0 -3.359375 -0.78125 -4.46875q-0.78125 -1.109375 -1.953125 -1.109375q-1.15625 0 -1.828125 0.984375q-0.875 1.234375 -0.875 4.59375z" fill-rule="nonzero"/>
    <path fill="#ffffff" d="m490.6719 30.19685l0 0c0 -3.3137074 2.6863098 -6.0 6.0 -6.0l10.27298 0l0 0l24.409424 0l50.955383 0c1.5913086 0 3.1174316 0.6321411 4.242676 1.7573605c1.1251831 1.1252174 1.7573242 2.6513405 1.7573242 4.2426395l0 15.0l0 0l0 9.0l0 0c0 3.3137093 -2.6862793 6.0 -6.0 6.0l-50.955383 0l-12.953247 21.576244l-11.456177 -21.576244l-10.27298 0c-3.3136902 0 -6.0 -2.6862907 -6.0 -6.0l0 0l0 -9.0l0 0z" fill-rule="nonzero"/>
    <path stroke="#000000" stroke-width="1.0" stroke-linejoin="round" stroke-linecap="butt" d="m490.6719 30.19685l0 0c0 -3.3137074 2.6863098 -6.0 6.0 -6.0l10.27298 0l0 0l24.409424 0l50.955383 0c1.5913086 0 3.1174316 0.6321411 4.242676 1.7573605c1.1251831 1.1252174 1.7573242 2.6513405 1.7573242 4.2426395l0 15.0l0 0l0 9.0l0 0c0 3.3137093 -2.6862793 6.0 -6.0 6.0l-50.955383 0l-12.953247 21.576244l-11.456177 -21.576244l-10.27298 0c-3.3136902 0 -6.0 -2.6862907 -6.0 -6.0l0 0l0 -9.0l0 0z" fill-rule="nonzero"/>
    <path fill="#000000" d="m505.41364 49.116848l-3.75 -9.859375l1.765625 0l2.125 5.90625q0.34375 0.953125 0.625 1.984375q0.21875 -0.78125 0.625 -1.875l2.1875 -6.015625l1.71875 0l-3.734375 9.859375l-1.5625 0zm14.90625 -1.609375l0 1.609375l-8.984375 0q-0.015625 -0.609375 0.1875 -1.15625q0.34375 -0.921875 1.09375 -1.8125q0.765625 -0.890625 2.1875 -2.0625q2.21875 -1.8125 3.0 -2.875q0.78125 -1.0625 0.78125 -2.015625q0 -0.984375 -0.71875 -1.671875q-0.703125 -0.6875 -1.84375 -0.6875q-1.203125 0 -1.9375 0.734375q-0.71875 0.71875 -0.71875 2.0l-1.71875 -0.171875q0.171875 -1.921875 1.328125 -2.921875q1.15625 -1.015625 3.09375 -1.015625q1.953125 0 3.09375 1.09375q1.140625 1.078125 1.140625 2.6875q0 0.8125 -0.34375 1.609375q-0.328125 0.78125 -1.109375 1.65625q-0.765625 0.859375 -2.5625 2.390625q-1.5 1.265625 -1.9375 1.71875q-0.421875 0.4375 -0.703125 0.890625l6.671875 0zm2.5319824 1.609375l0 -1.90625l1.90625 0l0 1.90625l-1.90625 0zm4.2457886 -6.703125q0 -2.421875 0.5 -3.890625q0.5 -1.46875 1.46875 -2.265625q0.984375 -0.796875 2.46875 -0.796875q1.09375 0 1.921875 0.4375q0.828125 0.4375 1.359375 1.28125q0.546875 0.828125 0.84375 2.015625q0.3125 1.1875 0.3125 3.21875q0 2.390625 -0.5 3.859375q-0.484375 1.46875 -1.46875 2.28125q-0.96875 0.796875 -2.46875 0.796875q-1.96875 0 -3.078125 -1.40625q-1.359375 -1.703125 -1.359375 -5.53125zm1.71875 0q0 3.34375 0.78125 4.453125q0.796875 1.109375 1.9375 1.109375q1.15625 0 1.9375 -1.109375q0.78125 -1.125 0.78125 -4.453125q0 -3.359375 -0.78125 -4.46875q-0.78125 -1.109375 -1.953125 -1.109375q-1.15625 0 -1.828125 0.984375q-0.875 1.234375 -0.875 4.59375zm9.594482 6.703125l0 -1.90625l1.90625 0l0 1.90625l-1.90625 0zm4.2457886 -6.703125q0 -2.421875 0.5 -3.890625q0.5 -1.46875 1.46875 -2.265625q0.984375 -0.796875 2.46875 -0.796875q1.09375 0 1.921875 0.4375q0.828125 0.4375 1.359375 1.28125q0.546875 0.828125 0.84375 2.015625q0.3125 1.1875 0.3125 3.21875q0 2.390625 -0.5 3.859375q-0.484375 1.46875 -1.46875 2.28125q-0.96875 0.796875 -2.46875 0.796875q-1.96875 0 -3.078125 -1.40625q-1.359375 -1.703125 -1.359375 -5.53125zm1.71875 0q0 3.34375 0.78125 4.453125q0.796875 1.109375 1.9375 1.109375q1.15625 0 1.9375 -1.109375q0.78125 -1.125 0.78125 -4.453125q0 -3.359375 -0.78125 -4.46875q-0.78125 -1.109375 -1.953125 -1.109375q-1.15625 0 -1.828125 0.984375q-0.875 1.234375 -0.875 4.59375zm9.594482 6.703125l0 -1.90625l1.90625 0l0 1.90625l-1.90625 0zm4.2457886 -6.703125q0 -2.421875 0.5 -3.890625q0.5 -1.46875 1.46875 -2.265625q0.984375 -0.796875 2.46875 -0.796875q1.09375 0 1.921875 0.4375q0.828125 0.4375 1.359375 1.28125q0.546875 0.828125 0.84375 2.015625q0.3125 1.1875 0.3125 3.21875q0 2.390625 -0.5 3.859375q-0.484375 1.46875 -1.46875 2.28125q-0.96875 0.796875 -2.46875 0.796875q-1.96875 0 -3.078125 -1.40625q-1.359375 -1.703125 -1.359375 -5.53125zm1.71875 0q0 3.34375 0.78125 4.453125q0.796875 1.109375 1.9375 1.109375q1.15625 0 1.9375 -1.109375q0.78125 -1.125 0.78125 -4.453125q0 -3.359375 -0.78125 -4.46875q-0.78125 -1.109375 -1.953125 -1.109375q-1.15625 0 -1.828125 0.984375q-0.875 1.234375 -0.875 4.59375z" fill-rule="nonzero"/>
    <path fill="#d5a6bd" d="m417.14386 204.55118l0 0c0 -5.9664154 4.8155823 -10.803146 10.75592 -10.803146l0 0c2.8526306 0 5.58844 1.1381836 7.6055603 3.1641693c2.0171204 2.0259857 3.1503296 4.7738037 3.1503296 7.638977l0 0c0 5.9664154 -4.8155823 10.803146 -10.75589 10.803146l0 0c-5.940338 0 -10.75592 -4.836731 -10.75592 -10.803146z" fill-rule="nonzero"/>
    <path stroke="#000000" stroke-width="1.0" stroke-linejoin="round" stroke-linecap="butt" d="m417.14386 204.55118l0 0c0 -5.9664154 4.8155823 -10.803146 10.75592 -10.803146l0 0c2.8526306 0 5.58844 1.1381836 7.6055603 3.1641693c2.0171204 2.0259857 3.1503296 4.7738037 3.1503296 7.638977l0 0c0 5.9664154 -4.8155823 10.803146 -10.75589 10.803146l0 0c-5.940338 0 -10.75592 -4.836731 -10.75592 -10.803146z" fill-rule="nonzero"/>
    <path fill="#000000" fill-opacity="0.0" d="m427.89978 193.74803l42.897614 -34.173233" fill-rule="nonzero"/>
    <path stroke="#000000" stroke-width="2.0" stroke-linejoin="round" stroke-linecap="butt" stroke-dasharray="2.0,6.0" d="m427.89978 193.74803l33.51175 -26.696228" fill-rule="evenodd"/>
    <path fill="#000000" stroke="#000000" stroke-width="2.0" stroke-linecap="butt" d="m463.46988 169.63562l5.0406494 -8.239044l-9.157318 3.0713959z" fill-rule="evenodd"/>
  </g>
</svg>
